<?xml version="1.0" encoding="utf-8"?>
<!-- Generator: Adobe Illustrator 22.0.1, SVG Export Plug-In . SVG Version: 6.00 Build 0)  -->
<svg version="1.1" id="Layer_1" xmlns="http://www.w3.org/2000/svg" xmlns:xlink="http://www.w3.org/1999/xlink" x="0px" y="0px"
	 viewBox="0 0 3600 2646" style="enable-background:new 0 0 3600 2646;" xml:space="preserve">
<style type="text/css">
	.st0{display:none;}
	.st1{display:inline;}
	.st2{fill:#FEEBCD;}
	.st3{opacity:0.2;}
	.st4{fill:#16164d;}
	.st5{fill:#9CA9B9;}
	.st6{opacity:0.3;}
	.st7{fill:#FFFFFF;}
	.st8{fill:#FF1212;}
	.st9{opacity:0.4;}
	.st10{fill:#A5A5A5;}
	.st11{fill:#FF7673;}
	.st12{fill:#FF66A4;}
	.st13{fill:#9CA9B9;stroke:#16164d;stroke-width:13;stroke-miterlimit:10;}
	.st14{fill:#FF9A3E;}
	.st15{display:none;opacity:0.35;}
	.st16{display:none;opacity:0.3;}
	.st17{display:none;opacity:0.5;}
	.st18{opacity:0.7;}
	.st19{fill:#FC7E81;}
	.st20{fill:#9CA9B9;stroke:#16164d;stroke-width:10;stroke-miterlimit:10;}
	.st21{fill:#808285;stroke:#16164d;stroke-width:10;stroke-miterlimit:10;}
	.st22{fill:#58595B;stroke:#16164d;stroke-width:10;stroke-miterlimit:10;}
</style>
<g class="st0">
	<g class="st1">
		<g>
			<g>
				<rect x="-671.2" y="-731.1" class="st2" width="5000" height="3994.1"/>
			</g>
		</g>
	</g>
</g>
<g>
	<g class="st3">
		<g>
			<g>
				<ellipse class="st4" cx="1307.1" cy="2436.6" rx="1079.7" ry="179.4"/>
			</g>
		</g>
	</g>
	<g>
		<g>
			<g>
				<path class="st5" d="M1104.9,2308.5c0,0-572.1,247.3-921.1-185.5c-244.2-302.8-163.2-561.3-2.4-668.2
					c108.6-72.1,253.5-75.2,359.4,23.8c93.2,87.2,97.7,185.1,71.1,240.4c-8.7,18-20.7,31.5-33.9,38.6
					c-76.5,41.1-132.7,5.6-172.8-80.9c-6.9-14.8-37.3-70.6-87.4-49.2c-8,3.4-15.2,7.6-21.8,12.4c-69.3,50.9-63.6,177.3-9.4,301.8
					c26.1,60.2,63.6,120,109.4,170.5c125,138,446.7,121.3,675.7,69.7L1104.9,2308.5z"/>
			</g>
		</g>
	</g>
	<g class="st6">
		<g>
			<g>
				<path class="st4" d="M1104.9,2308.5c0,0-572.1,247.3-921.1-185.5c-229.2-284.1-172-529.3-31.2-646.7
					c-73.3,132.1-63.2,363.4,115.4,584.8c261.4,324.1,642.5,233.3,820.1,184L1104.9,2308.5z"/>
			</g>
		</g>
	</g>
	<g>
		<g>
			<g>
				<path class="st7" d="M578,1757.6c-76.5,41-132.7,5.6-172.9-80.8c-6.9-14.8-37.3-70.6-87.4-49.2c-8,3.4-15.2,7.6-21.8,12.4
					l6.4-36.2c2-11.3-6.3-21.9-17.8-22.6l-57.9-3.7c-15-1-23.2-17.9-14.7-30.2l33-47.9c7.5-10.9,2.1-25.9-10.6-29.5l-52.9-15.2
					c108.5-72.1,253.5-75.2,359.4,23.9C664.6,1594.3,632,1728.7,578,1757.6z"/>
			</g>
		</g>
	</g>
	<g>
		<g>
			<g>
				<path class="st7" d="M578,1757.6c-76.5,41-132.7,5.6-172.9-80.8c-6.9-14.8-37.3-70.6-87.4-49.2c-8,3.4-15.2,7.6-21.8,12.4
					l6.4-36.2c2-11.3-6.3-21.9-17.8-22.6l-57.9-3.7c-15-1-23.2-17.9-14.7-30.2l33-47.9c7.5-10.9,2.1-25.9-10.6-29.5l-52.9-15.2
					c108.5-72.1,253.5-75.2,359.4,23.9C664.6,1594.3,632,1728.7,578,1757.6z"/>
			</g>
		</g>
	</g>
	<g>
		<g>
			<g>
				<path class="st4" d="M737.7,2397.3c-233.4,0-429.3-90.3-568.2-262.7c-104-129-158.8-262.7-158.6-386.7
					c0.2-107.1,41.3-204.3,115.8-273.5c58.6-54.4,132.7-86.5,208.8-90.3c80.5-4,157.9,24.7,218.1,81c66.4,62.1,99,139.4,89.5,212.3
					c-5.7,44-27.3,81-56.2,96.5c-36.6,19.6-71,24.2-102.2,13.8c-37.8-12.6-70.1-47.3-96.1-103.1c-6.1-13.1-28.7-54.8-63.4-40
					c-42.7,18.2-57.5,62.4-62.3,96.3c-14.1,98,35.2,255.1,154.3,353.1c179.7,148,484.8,107.5,650.6,70.1c10-2.2,19.8,4,22.1,14
					c2.2,10-4,19.8-14,22.1c-172.4,38.8-490.4,80.3-682.2-77.7c-113.7-93.6-185.6-259.9-167.4-386.9c8.8-61.1,38.8-105.5,84.4-125
					c51.9-22.2,92.5,17.6,111.4,58.4c21.5,46.3,46.5,74.4,74.3,83.7c21.6,7.2,45.5,3.5,73.1-11.3c18.3-9.8,32.9-36.8,37.1-68.7
					c3.8-28.8,3.7-104.1-78.1-180.5c-119.9-112.1-280.1-80.1-376.4,9.4c-117.4,109.2-175.8,334.4,46.4,609.9
					c140.8,174.7,334.7,258.2,576.2,248.2c181.1-7.5,321.7-67.4,323.1-68c9.4-4.1,20.2,0.3,24.3,9.6c4.1,9.4-0.3,20.2-9.6,24.3
					c-6,2.6-148.3,63.3-336.2,71C763.1,2397.1,750.3,2397.3,737.7,2397.3z"/>
			</g>
		</g>
	</g>
	<g>
		<g>
			<g>
				<path class="st5" d="M2021.6,1810.9l-123.8,195.4l-337.5,397.2l-197.8-17.2l-73.6-6.4L1016,2103.2v-675.4l20-0.1l952.6-4.1
					c20.6,74.4,42.6,158.3,53,214.4c0.9,5,1.8,9.9,2.4,14.6C2060.8,1764.3,2021.6,1810.9,2021.6,1810.9z"/>
			</g>
		</g>
	</g>
	<g>
		<g>
			<g>
				<path class="st8" d="M1047.4,1418.1c0,0-58.1,132.7-174.1,175.3c-116.1,42.7-246.2-20.9-246.2-20.9s58.1-132.7,174.1-175.3
					C917.2,1354.6,1047.4,1418.1,1047.4,1418.1z"/>
			</g>
		</g>
	</g>
	<g class="st9">
		<g>
			<g>
				<path class="st7" d="M830,1426.1c78.5-28.8,163.4-9.2,210.1,6.6c4.8-9.1,7.2-14.6,7.2-14.6s-130.1-63.5-246.2-20.9
					C685.1,1439.9,627,1572.6,627,1572.6s13.7,6.7,36.1,14.2C681.9,1551.2,737.5,1460.1,830,1426.1z"/>
			</g>
		</g>
	</g>
	<g class="st6">
		<g>
			<g>
				<path class="st4" d="M1047.4,1418.1c0,0-58.1,132.7-174.2,175.3c-116.1,42.7-246.2-20.9-246.2-20.9s10-23,30.2-52.9
					c48.6,14.3,123.7,27.2,193.7,1.5c67.7-24.9,115.7-80.5,144-122.4C1026.9,1408.1,1047.4,1418.1,1047.4,1418.1z"/>
			</g>
		</g>
	</g>
	<g>
		<g>
			<g>
				<path class="st4" d="M785,1626.7c-87.8,0-161.9-35.5-166.1-37.5l-15.9-7.8l7.1-16.2c2.5-5.7,62.6-140.4,184.7-185.3
					c122.1-44.8,255.1,18.9,260.7,21.6l15.9,7.8l-7.1,16.2c-2.5,5.7-62.6,140.4-184.7,185.3C848,1622.4,815.7,1626.7,785,1626.7z
					 M652.4,1563.3c37.8,14.6,131.1,43.5,214.5,12.8c83.4-30.6,135.7-113,155.1-148.6c-37.8-14.6-131.1-43.5-214.5-12.8
					C724.2,1445.3,671.8,1527.7,652.4,1563.3z"/>
			</g>
		</g>
	</g>
	<g>
		<g>
			<g>
				<path class="st8" d="M1016,1377.8c0,0-136,49.8-247.1-4.6c-111.1-54.4-155.2-192.3-155.2-192.3s136-49.8,247.1,4.6
					C971.9,1239.8,1016,1377.8,1016,1377.8z"/>
			</g>
		</g>
	</g>
	<g class="st6">
		<g>
			<g>
				<path class="st4" d="M1016,1377.8c0,0-136,49.8-247.1-4.6c-111.1-54.3-155.2-192.3-155.2-192.3s24.7-9,61.6-15.2
					c23,45.1,66,110,134.2,143.4c63.7,31.2,135.7,28,185.5,19.7C1009.5,1357.2,1016,1377.8,1016,1377.8z"/>
			</g>
		</g>
	</g>
	<g>
		<g>
			<g>
				<path class="st4" d="M889.1,1417.2c-40.7,0-85.9-6.7-128.3-27.4C644,1332.7,598,1192.5,596.1,1186.6l-5.4-16.9l16.6-6.1
					c5.9-2.1,144.7-51.9,261.5,5.3c116.8,57.2,162.8,197.3,164.7,203.3l5.4,16.9l-16.6,6.1C1018.6,1396.5,960.8,1417.2,889.1,1417.2
					z M638.1,1192.8c15.6,37.4,59.3,124.8,139,163.8c79.8,39,175.5,19.9,214.6,9.3c-15.6-37.4-59.3-124.8-139-163.8
					C772.9,1163.1,677.2,1182.2,638.1,1192.8z"/>
			</g>
		</g>
	</g>
	<g>
		<g>
			<g>
				<path class="st5" d="M1362.5,2386.4c-5.9,11.3-12.3,20.5-19.3,27.1c-59.3,55.8-133.6,13.9-133.6,13.9c-0.6,0.3-1.2,0.6-1.8,0.9
					c-287.1,140.4-428.5-121.1-428.5-121.1c-103-257.5,45.7-596.1,153.2-788.8c19.8-35.6,38.2-66.1,53.4-90.3l30.2-0.1l20-0.1
					l33.2,207.2l89.2,556.5l7.5,46.6c-47.9-309.4,130.8-278.4,171-240.7C1416.2,2071.9,1409.5,2295.7,1362.5,2386.4z"/>
			</g>
		</g>
	</g>
	<g>
		<g>
			<g>
				<path class="st7" d="M1343.2,2413.5c-1.2,1.2-2.5,2.3-3.7,3.4c-52.1,45.1-134,18.5-151.9-48.1c-15.2-56.6-24-122.2-29.2-177.3
					l7.5,46.6c-47.9-309.4,130.8-278.4,171-240.7C1426.1,2081.1,1406.5,2353.8,1343.2,2413.5z"/>
			</g>
		</g>
	</g>
	<g class="st6">
		<g>
			<g>
				<path class="st4" d="M1397.2,2190.5c-0.1-3.5-0.2-6.9-0.3-10.3c0-1.3-0.1-2.5-0.1-3.8c-0.4-8.2-1-16.4-1.8-24.6
					c-6.4,70-24.6,132.9-51.7,157.2c-0.5,0.4-1,0.9-1.5,1.2c0,0,0,0,0,0c-9.2,30.8-27.2,51.7-47.8,51.7c-16.5,0-31.3-13.4-41.3-34.5
					c-45.4-11.9-83-45.2-83-45.2c-0.6,0.3-9.9,31.1-19.6,44.2c-69.4,93.3-251.5,50-318.7-39.2c-31.7-42-55.6-87.2-68.6-138.1
					c-7.9-31-13.9-63-16-89.6c-6.5,85.7,1.7,170.3,32.6,247.5c0,0,141.4,261.5,428.5,121.1c0.6-0.3,1.2-0.5,1.8-0.9
					c0,0,66.1,37.3,123.3-5.3c1.1-0.8,2.1-1.6,3.2-2.4c1.1-0.9,2.2-1.8,3.4-2.8c1.3-1.1,2.5-2.2,3.8-3.4c4.1-3.9,8-8.7,11.8-14.3
					c2.1-3.2,4.1-6.5,6.1-10.1c0.6-1.2,1.3-2.4,2-3.7c4.3-8.4,8.2-17.9,11.8-28.3c3.5-10,6.5-20.8,9.2-32.3
					c4.7-19.9,8.3-41.8,10.5-64.6c0.4-4.5,0.8-9,1.2-13.6c1.1-14.2,1.6-28.7,1.6-43.3C1397.3,2199.1,1397.3,2194.8,1397.2,2190.5z"
					/>
			</g>
		</g>
	</g>
	<g>
		<g>
			<g>
				<path class="st7" d="M1355,2399.2c2.8-4.2,5.5-8.8,8-13.9C1360.5,2390.4,1357.8,2395,1355,2399.2z"/>
			</g>
		</g>
	</g>
	<g>
		<g>
			<g>
				<path class="st7" d="M1394.9,2151.8c0.8,8.1,1.4,16.3,1.8,24.6C1396.3,2168.1,1395.7,2159.9,1394.9,2151.8z"/>
			</g>
		</g>
	</g>
	<g>
		<g>
			<g>
				<path class="st4" d="M1031.3,1370.1c-8.5,19.3-17.9,38.1-27.5,56.7c-9.5,18.6-19.3,37-29.3,55.2c-20,36.5-39.7,73.1-58.9,109.9
					c-19.3,36.8-37.6,74.1-54.1,112.1c-16.6,38-31.2,76.9-44.5,116.1c-13.4,39.2-24.3,79.1-33.3,119.3c-2.1,10.1-4.6,20.1-6.3,30.2
					l-5.3,30.4c-2.6,20.3-5.7,40.7-6.8,61.1c-6.8,81.5,2,164.1,31.1,239.1l-0.9-1.9c1.9,3.5,4.7,7.9,7.3,11.9
					c2.7,4.1,5.5,8.1,8.4,12.1c5.7,8,11.9,15.7,18.3,23.1c12.9,14.9,26.9,28.8,42.1,41.3c30.2,25,65,44,102.2,54.6
					c18.5,5.5,37.8,8.4,57.1,9.4c9.7,0.8,19.4,0.3,29.1,0.1c4.9-0.2,9.7-0.9,14.6-1.3l7.3-0.7c2.4-0.3,4.8-0.8,7.2-1.2
					c38.7-6.1,76.5-19.1,112.3-36.8l8.6-4.2l8.7,4.7c1.1,0.6,3.4,1.7,5.3,2.5c2,0.8,4,1.7,6.1,2.5c4.2,1.6,8.4,2.9,12.7,4
					c8.6,2.3,17.4,3.5,26,3.6c8.7,0.4,17-1,25.1-3c3.9-1.4,8-2.2,11.7-4.3l5.7-2.6c1.8-1.1,3.5-2.3,5.3-3.4c1.7-1.2,3.7-2.1,5.3-3.5
					l4.9-4.1c3.6-2.7,5.9-5.4,8.5-8.4c5.1-6.1,9.4-14.2,13.4-22.4c7.7-16.8,13.5-35.4,17.8-54.4c8.6-38.1,12.4-77.9,12.2-117.5
					c-0.3-39.5-4.4-79.1-15-116.1c-5.4-18.4-12.3-36.2-22-51.5c-2.5-3.8-4.8-7.6-7.7-10.9c-1.4-1.7-2.6-3.6-4.1-5.1l-4.4-4.6
					c-1.5-1.8-2.7-2.5-4-3.7c-1.6-1-3-2.2-4.7-3.2c-3.4-2-7.1-4-11.1-5.5c-15.8-6.4-33.8-8.8-50.4-6.4c-16.5,2.7-31.6,9.9-43,22.1
					c-6,5.8-10.7,13.1-15,20.7c-3.9,7.9-7.4,16.2-9.9,25.1c-5.1,17.7-7.6,36.5-9.4,55.7c-3.2,38.6-1.9,78.2-6.4,119.8l0,0
					c-0.4,3.5-3.5,6-7,5.6c-2.4-0.3-4.3-1.8-5.2-3.8c-16.8-39.1-22.4-81.4-20.8-124.4c1.2-21.5,5-43.3,12.2-64.7
					c7.2-21.2,17.8-42.5,34.9-59.9c16.5-17.8,40.2-29.3,64-32.9c24-3.4,47.8-0.1,69.8,8.8c5.5,2.2,11,4.9,16.3,8.2
					c2.7,1.6,5.3,3.5,8,5.4c2.6,2.2,5.5,4.5,7.3,6.6l6.2,6.4c2.1,2.1,3.7,4.5,5.6,6.8c3.8,4.5,6.8,9.3,9.9,14.1
					c12.2,19.3,20.1,40.1,26.2,60.8c11.9,41.7,16.1,84.1,16.5,126.2c0.2,42.2-3.8,84.3-13.1,125.9c-4.8,20.8-11,41.5-20.4,61.9
					c-5,10.1-10.3,20.3-18.2,29.9c-4,4.8-8.7,9.7-13.2,13.2l-6.9,5.7c-2.3,1.9-5,3.3-7.5,5c-2.5,1.6-5.1,3.2-7.7,4.7l-8.2,3.9
					c-5.4,2.8-11.3,4.3-17,6.2c-11.7,2.9-23.7,4.7-35.5,4.3c-11.8-0.2-23.4-1.8-34.6-4.8c-5.6-1.4-11.1-3.2-16.5-5.2
					c-2.7-1-5.4-2.1-8.1-3.3c-2.8-1.3-5.1-2.3-8.5-4.2l17.3,0.5c-38.5,19-79.8,33.4-123.1,40.2c-2.7,0.4-5.4,1-8.1,1.3l-8.2,0.8
					c-5.5,0.5-10.9,1.2-16.4,1.4c-11,0.3-22,0.8-33-0.1c-22-1.1-44-4.5-65.3-10.7c-42.6-12.1-82-33.8-115.6-61.6
					c-16.8-13.9-32.3-29.2-46.6-45.7c-7.1-8.2-13.9-16.7-20.3-25.5c-3.2-4.4-6.3-8.9-9.3-13.5c-3.1-4.7-5.8-9-8.9-14.6l-0.5-0.9
					l-0.4-1c-31.8-81.7-40.7-170.2-33.7-255.6c1.2-21.5,4.4-42.7,7.2-63.9l5.5-31.6c1.7-10.6,4.4-20.9,6.5-31.4
					c9.3-41.7,20.6-82.8,34.3-123c27.1-80.6,61-158.5,98.4-234.5c18.9-37.9,39.8-74.8,62.4-110.6c11.3-17.9,23.5-35.2,36.4-52.1
					c12.9-16.8,26.5-33.1,42.1-48.2c2.5-2.4,6.4-2.3,8.9,0.1c1.8,1.9,2.2,4.6,1.2,6.9L1031.3,1370.1z"/>
			</g>
		</g>
	</g>
	<g>
		<g>
			<g>
				<path class="st4" d="M1051.3,1888.3c19.9,8.6,37.1,21.7,52.8,36.7c15.5,15.2,29.1,32.5,40.2,51.5c2.8,4.7,5.2,9.7,7.8,14.5
					l3.8,7.3c1.1,2.5,2.1,5.1,3.1,7.6c2,5.1,4.2,10.2,6.1,15.4l4.7,15.8c0.7,2.6,1.6,5.3,2.3,8l1.5,8.1c1,5.4,1.9,10.8,2.8,16.2
					c1.4,10.9,1.7,21.8,1.8,32.7c0.1,10.2-8.1,18.5-18.2,18.6c-8.9,0.1-16.4-6.1-18.2-14.5l-0.4-2c-2.1-9.7-3.1-19.4-4.7-28.9
					c-2.2-9.4-3-19.2-5.6-28.5l-3.2-14.1l-4-13.9c-0.7-2.3-1.4-4.6-2-7l-2.4-6.8c-1.7-4.5-3.1-9.2-5-13.7
					c-7.2-18.1-16.3-35.5-27.2-52.1c-10.9-16.6-23.7-32.5-38.6-46.3l-0.2-0.2c-1.1-1-1.1-2.7-0.1-3.7
					C1049.1,1888.1,1050.3,1887.8,1051.3,1888.3z"/>
			</g>
		</g>
	</g>
	<g>
		<g>
			<g>
				<path class="st4" d="M2058.2,2076.1c-0.8,0-1.5,0-2.3-0.1c-10.1-1.3-17.3-10.5-16.1-20.6c38.3-309-79.1-697.4-80.3-701.3
					c-3-9.8,2.5-20.1,12.3-23.1s20.1,2.5,23.1,12.3c5,16.2,121,399.8,81.6,716.7C2075.3,2069.2,2067.3,2076.1,2058.2,2076.1z"/>
			</g>
		</g>
	</g>
	<g>
		<g>
			<g>
				<path class="st10" d="M2114.3,2400.3c-76.4,28.3-128.4-39.5-128.4-39.5c-0.6,0.2-1.1,0.4-1.7,0.6
					c-179,64.1-623.2,27.9-623.2,27.9l651.3-217.4l7.4-2.5c76.8-303.5,229.2-205.1,251.5-154.7
					C2320.5,2126.8,2195.9,2370.1,2114.3,2400.3z"/>
			</g>
		</g>
	</g>
	<g class="st6">
		<g>
			<g>
				<path class="st4" d="M2105.9,2403c-71.8,20.7-120.1-42.2-120.1-42.2c-0.6,0.2-1.2,0.4-1.8,0.6c-179,64.1-623.2,27.9-623.2,27.9
					l21.7-106.9c141.9,3,618.9-43.7,618.9-43.7v0c-4.9,20-9.3,40.2-12,60.6C1980.9,2365.9,2042.3,2420.9,2105.9,2403z"/>
			</g>
		</g>
	</g>
	<g class="st6">
		<g>
			<g>
				<path class="st4" d="M2114.3,2400.3c-2.8,1-5.6,2-8.3,2.7c1.2-0.3,2.4-0.7,3.6-1.1C2111.1,2401.4,2112.7,2400.9,2114.3,2400.3z"
					/>
			</g>
		</g>
	</g>
	<g>
		<g>
			<g>
				<path class="st7" d="M2114.3,2400.3c-1.6,0.6-3.2,1.1-4.7,1.6c-64.9,21-128.8-34.8-120-102.5c5.1-39.5,17-78,25.6-116
					c1.1-4.8,2.6-9.5,4.5-14.1l0,0c76.8-303.5,229.2-205.1,251.5-154.7C2320.5,2126.8,2195.9,2370.1,2114.3,2400.3z"/>
			</g>
		</g>
	</g>
	<g class="st6">
		<g>
			<g>
				<path class="st4" d="M2282.3,2075.9c0,9.9-0.6,20-1.9,30.4c-0.4,3.5-0.9,7-1.4,10.6c-2,13.2-4.8,26.7-8.4,40.3
					c-0.8,3.1-1.7,6.2-2.5,9.3c-5.8,20.4-13.2,41-21.7,61c-1.2,2.9-2.5,5.8-3.8,8.7c-7.9,18-16.8,35.5-26.1,51.9
					c-1.4,2.4-2.7,4.8-4.1,7.1c-1.5,2.6-3,5.1-4.6,7.6c-2.2,3.6-4.5,7.2-6.7,10.7c-2.7,4.2-5.5,8.4-8.3,12.4c-1.4,2-2.7,3.9-4.1,5.8
					c-9.8,13.7-19.8,25.8-29.8,36.1c-1.2,1.3-2.4,2.4-3.6,3.6c-14.2,14.1-28.1,24.1-41,28.9c-1.6,0.6-3.2,1.1-4.8,1.6
					c-1.2,0.4-2.3,0.7-3.6,1.1c-63.6,17.9-125.1-37.1-116.4-103.5c2.7-20.4,7.1-40.6,12-60.6c0.5,1.9,15.6,56,58.1,77.5
					c17.2,8.7,38.8,12,65.7,4.5c7.5-2.1,15.3-6,23.2-11.6C2200.3,2273.2,2258.2,2169.7,2282.3,2075.9z"/>
			</g>
		</g>
	</g>
	<g>
		<g>
			<g>
				<path class="st7" d="M2282.3,2075.9c-27.8,108.2-100.6,229.3-156.9,245c-93.7,26.1-123.1-79.4-123.9-82.1v0
					c4.6-18.6,9.5-37,13.6-55.3c1.1-4.8,2.6-9.5,4.5-14c41.6-164.5,105.5-211,158.7-211c45,0,82.5,33.2,92.7,56.3
					C2278.9,2032.3,2282.3,2053.2,2282.3,2075.9z"/>
			</g>
		</g>
	</g>
	<g>
		<g>
			<g>
				<path class="st4" d="M2077.5,2425.5c-42.8,0-77.7-23.1-97.3-43.2c-186.3,60-602.7,26.9-620.7,25.4c-10.2-0.8-17.7-9.7-16.9-19.9
					c0.8-10.2,9.7-17.8,19.9-16.9c4.4,0.4,445.1,35.4,617.1-27.4l12.7-4.7l8.3,10.8c1.8,2.3,45,56.4,107.3,33.4
					c35.6-13.2,87.9-83.1,121.6-162.7c34.4-81.2,43.6-155.2,24.7-198.1c-7.9-18-42-48.3-81.9-45c-56,4.7-103.9,74.6-134.8,196.8
					c-2.5,9.9-12.5,15.9-22.4,13.4c-9.9-2.5-15.9-12.5-13.4-22.4c45-177.7,115.9-220.2,167.5-224.5c56.2-4.7,105.1,35.8,118.8,66.9
					c33,75-6.1,184-24.5,227.4c-32.5,76.8-89.3,163.1-142.8,182.9C2105.7,2423.2,2091.2,2425.5,2077.5,2425.5z"/>
			</g>
		</g>
	</g>
	<g>
		<g>
			<g>
				<path class="st5" d="M1397.3,2221.9c0,0,28.3,268.3,181.4,247.8c108.6-14.5,92.6-292.6,80.8-349.3"/>
			</g>
		</g>
	</g>
	<g>
		<g>
			<g>
				<path class="st5" d="M2045.9,1934.1c-12.7,147-42.8,241.2-58.3,283.4c-17.6,48.1-80,253.9-201.3,240.7
					c-85-9.2-93.8-202.3-87.9-291.1l97.5-135.1l252.3-349.3C2054,1779,2052,1862.7,2045.9,1934.1z"/>
			</g>
		</g>
	</g>
	<g class="st6">
		<g>
			<g>
				<path class="st4" d="M2045.9,1934.1c-12.7,147-42.8,241.2-58.3,283.4c-17.6,48.1-80,253.9-201.3,240.7
					c-85-9.2-93.8-202.3-87.9-291.1l31-18.2c51.6-30.2,82.7-73.5,112.1-125.5l9.7-17.1c0,0,6.2,49.5-25.7,102.6
					c-36.3,60.4-26.3,101.9,39.1,87.8C1960.4,2176,2021.4,2013.6,2045.9,1934.1z"/>
			</g>
		</g>
	</g>
	<g class="st6">
		<g>
			<g>
				<path class="st4" d="M1578.7,2469.6c-134.5,18-179.3-274-188.1-345.2c33.4,61.9,89.7,119.1,182.4,109.2
					c45.8-4.9,74-39.5,90.6-85.4C1673.4,2238,1674.7,2456.8,1578.7,2469.6z"/>
			</g>
		</g>
	</g>
	<g class="st6">
		<g>
			<g>
				<path class="st4" d="M1659.3,2105l13.5,59.1c125.9,0,171.2-157.2,171.2-157.2S1787,2097.5,1659.3,2105z"/>
			</g>
		</g>
	</g>
	<g>
		<g>
			<g>
				<path class="st4" d="M1847.8,2007.1c-3.8,22.2-10.9,43.4-19.8,64.2c-9.2,20.6-20.5,40.7-35.2,59c-14.5,18.3-32.4,35.1-54.3,46.9
					c-10.9,5.8-22.7,10.3-34.9,13.2c-12.2,2.8-24.9,3.7-37.2,2.9c-10.2-0.6-17.9-9.4-17.3-19.6c0.6-9,7.4-16,16-17.2l1.3-0.2
					c9.5-1.3,18.6-2.6,27.6-5c8.9-2.6,17.7-5.7,26.2-9.8c8.5-4.2,16.8-9.1,24.8-14.7c8-5.7,15.8-12,23.2-19
					c14.9-13.9,28.3-30.1,40.7-47.4c12.4-17.3,23.7-35.8,34-55l0.1-0.1c0.7-1.3,2.3-1.8,3.6-1.1
					C1847.5,2004.9,1848,2006,1847.8,2007.1z"/>
			</g>
		</g>
	</g>
	<g>
		<g>
			<g>
				<path class="st11" d="M986.8,1371.6c0,0,26.8,68.9,101.9,146.9c93.3,96.7,493.3,389.2,739.9,340.1c0,0,52.4-36.9,81.9-90.3
					c62.4-113.1,114.5-297.8,67.8-401.8"/>
			</g>
		</g>
	</g>
	<g class="st6">
		<g>
			<g>
				<path class="st4" d="M2044,1652.7c-1.2,4-2.5,8.1-3.8,12.2c-18.9,58.4-46.6,115.1-76.2,160.4c-34.9,53.4-97,90.3-97,90.3
					c-245.3,41.2-618.7-158.2-797.8-280.6c-10.5-7.2-20.4-14.1-29.5-20.7c-8.5-6.2-16.4-12.1-23.7-17.7c-10.1-7.8-18.9-15-26.1-21.3
					c-22.8-19.9-41.8-39.3-57.5-57c19.8-35.6,38.2-66.1,53.4-90.3l30.2-0.1l20-0.1l952.6-4.1c20.6,74.4,42.6,158.3,53,214.4
					C2042.5,1643.1,2043.3,1647.9,2044,1652.7z"/>
			</g>
		</g>
	</g>
	<g>
		<g>
			<g>
				<path class="st8" d="M1974.7,1608c-16,58.4-39.3,115.1-64.3,160.4c-29.5,53.4-81.8,90.3-81.8,90.3
					c-219.1,43.6-559.4-182.4-697.9-301.2c-17.4-14.9-31.6-28.1-42-38.9c-75.2-77.9-101.9-146.8-101.9-146.8l991.5-5.1
					C2006.3,1429,1998.7,1520.4,1974.7,1608z"/>
			</g>
		</g>
	</g>
	<g>
		<g>
			<g>
				<g>
					<path class="st7" d="M1659.8,1727.3c10-64.4,64.6-73.5,91.1-12.3c3.7,8.6,0.9,19-7.1,24c-16.8,10.3-49.9,15.1-69.6,10.1
						C1664.5,1746.6,1658.2,1737.2,1659.8,1727.3z"/>
				</g>
			</g>
		</g>
		<g>
			<g>
				<g>
					
						<ellipse transform="matrix(0.9907 -0.1363 0.1363 0.9907 -212.0233 239.5122)" class="st7" cx="1642.7" cy="1667.8" rx="22" ry="24.6"/>
				</g>
			</g>
		</g>
		<g>
			<g>
				<g>
					<path class="st7" d="M1713.4,1623.1c1.9,13.5-6.4,25.7-18.4,27.3c-12,1.7-23.3-7.9-25.1-21.4s6.4-25.7,18.4-27.3
						C1700.3,1600.1,1711.5,1609.6,1713.4,1623.1z"/>
				</g>
			</g>
		</g>
		<g>
			<g>
				<g>
					
						<ellipse transform="matrix(0.9907 -0.1363 0.1363 0.9907 -208.7974 253.9995)" class="st7" cx="1750" cy="1651.4" rx="22" ry="24.6"/>
				</g>
			</g>
		</g>
	</g>
	<g class="st6">
		<g>
			<g>
				<path class="st4" d="M1974.7,1608c-16,58.4-39.3,115.1-64.3,160.4c-29.5,53.4-81.8,90.3-81.8,90.3
					c-219.1,43.6-559.4-182.4-697.9-301.2c-17.4-14.9-31.6-28.1-42-38.9c-22.3-23.1-40.3-45.4-54.6-65.4c2.2,1.9,4.4,3.8,6.7,5.8
					c141.7,121.6,479.7,356.6,720.9,352.2c34.4-0.6,66.7-17,88.2-43.8c16.5-20.6,36.2-47.5,51.6-75.4c27.6-49.9,53.3-112.5,71-177
					c9.1-33.1,16-66.6,19.9-99.2C2001.7,1472.3,1993,1541.3,1974.7,1608z"/>
			</g>
		</g>
	</g>
	<g class="st3">
		<g>
			<g>
				<path class="st4" d="M1974.7,1592.4c-233.5,87.9-606.8,19.8-844.1-50.6c-17.4-14.9-31.6-28.1-42-38.9
					c-75.2-77.9-101.9-146.8-101.9-146.8l991.5-5.1C2006.3,1413.4,1998.7,1504.8,1974.7,1592.4z"/>
			</g>
		</g>
	</g>
	<g>
		<g>
			<g>
				<path class="st4" d="M1769.8,1881.5c-126.5,0-271.2-64.2-377.1-123c-135.2-75-264-173.4-316.5-227.9
					c-76.7-79.5-104.5-149.7-105.6-152.6c-3.5-8.9,1-19,9.9-22.4c8.9-3.5,18.9,0.9,22.4,9.9c0.5,1.2,27,67.3,98.3,141.1
					c93,96.4,484.8,379,720.3,335.9c10.9-8.3,50.5-40.1,73.8-82.3c64.3-116.6,109.7-291.6,67.1-386.4c-3.9-8.7,0-19,8.7-22.9
					c8.7-3.9,19,0,22.9,8.7c53.3,118.7-11.7,314.6-68.4,417.3c-31,56.3-84.8,94.5-87.1,96l-3,2.1l-3.6,0.7
					C1812,1879.6,1791.2,1881.5,1769.8,1881.5z"/>
			</g>
		</g>
	</g>
	<g>
		<g>
			<g>
				<path class="st10" d="M2227.1,930.7c0,0-1.5,11.2,21.6,33.5c11.2-5.8,18.4-12.7,19.2-20.6c0.4-3.8-0.5-7.4-2.4-11.1
					C2244.9,932.7,2227.1,930.7,2227.1,930.7z"/>
			</g>
		</g>
	</g>
	<g>
		<g>
			<g>
				<path class="st7" d="M1150.3,836.4c5.8-4.4,11.5-9,17-13.7C1162,826.5,1156.3,831,1150.3,836.4z"/>
			</g>
		</g>
	</g>
	<g>
		<g>
			<g>
				<path class="st5" d="M1704.3,227c70.1-42,390.8-228.9,448.8-175c101.6,94.4-17.4,413.4-46,485.5"/>
			</g>
		</g>
	</g>
	<g class="st9">
		<g>
			<g>
				<path class="st7" d="M1704.3,227l42.9,33.1c103.6-60.4,368.6-206.9,420.8-158.4c9.1,8.4,16.4,18.7,22.2,30.4
					c-5.2-33.2-16.7-61.1-37-80.1C2095.1-1.9,1774.4,184.9,1704.3,227z"/>
			</g>
		</g>
	</g>
	<g>
		<g>
			<g>
				<path class="st4" d="M2107.1,555.9c-2.3,0-4.6-0.4-6.8-1.3c-9.5-3.8-14.1-14.5-10.3-24c68.6-172.5,123-397.8,50.6-465.1
					c-4.7-4.3-36.2-22.1-199.4,54.7c-98.1,46.2-198.8,105.5-227.3,122.6c-8.8,5.3-20.1,2.4-25.3-6.3c-5.2-8.8-2.4-20.1,6.3-25.3
					c28.9-17.3,130.9-77.4,230.6-124.3c174-81.8,220.5-66.8,240.3-48.3c108.2,100.6-4.4,412.6-41.4,505.8
					C2121.3,551.5,2114.4,555.9,2107.1,555.9z"/>
			</g>
		</g>
	</g>
	<g>
		<g>
			<g>
				<path class="st12" d="M2113.7,147.3c0,0,15.7-4.9,13.3,32c-4.2,63.3-38.2,221-113.8,275.3c0,0-101.4-166.3-129.8-186.3
					c-28.4-20,35.4-37.5,54.4-59.8C1956.8,186.1,2102.2,141.1,2113.7,147.3z"/>
			</g>
		</g>
	</g>
	<g class="st6">
		<g>
			<g>
				<path class="st4" d="M1883.4,268.3c16.6,11.7,57.9,72.9,89.4,122c45-70.3,66.3-176.8,69.5-226c0-0.6,0.1-1.1,0.1-1.6
					c-44.1,13.7-94.1,33.2-104.7,45.7C1918.8,230.8,1854.9,248.3,1883.4,268.3z"/>
			</g>
		</g>
	</g>
	<g>
		<g>
			<g>
				<path class="st4" d="M2113.1,146.9c-22.2,5.4-44.4,12.3-66.1,20c-21.7,7.7-43.1,16.4-63.9,26.2c-20.8,9.7-40.9,20.6-60.1,32.7
					c-19.2,12.1-37.3,25.6-53.7,40.6h0l-0.3-24.8c4.9,4.4,8.7,8.2,12.8,12.4c4,4.1,8,8.3,11.8,12.5c7.7,8.5,15.1,17.1,22.2,26
					c14.2,17.7,27.5,36,40,54.7c12.2,18.9,24.1,38.1,34.7,57.9c5.6,9.7,10.4,19.9,15.5,29.9c5,10,9.5,20.3,14.3,30.4
					c1.7,3.5,0.2,7.7-3.4,9.4c-3.4,1.6-7.3,0.3-9.1-2.9l-0.2-0.3c-5.4-9.6-10.5-19.3-16.1-28.8c-5.7-9.4-11.1-19-17.2-28.1
					c-11.6-18.6-24.5-36.4-37.5-53.9c-13.3-17.3-27.3-34.1-42.1-50c-7.4-8-14.9-15.7-22.7-23.2c-3.9-3.7-7.8-7.4-11.8-10.9
					c-3.9-3.5-8.2-7.1-11.8-10l-15-11.7l14.7-13.1l0,0c19.1-15.3,39.5-28.6,60.6-40.1c21.1-11.5,42.9-21.4,65-30.1
					c22.1-8.7,44.6-16.2,67.4-22.7c22.8-6.4,45.6-12,69.1-16.1c3.9-0.7,7.6,1.9,8.3,5.8c0.7,3.7-1.7,7.3-5.3,8.2L2113.1,146.9z"/>
			</g>
		</g>
	</g>
	<g>
		<g>
			<g>
				<path class="st5" d="M697.2,1118.6c4.2,33.1,70.2,0.7,84.6-6.7c1.2-0.6,2.4,0.6,2.1,2.1c-1.2,5.7-4.6,18.7-13.4,39.3
					c-10.8,25.5-19.7,45.4-14.5,58.6c5.6,14.1,29.9,16.6,58,13c8.7-1.1,16.9-1.3,25.2,1c34.4,53,78.2,96.9,128.3,133
					c324.2,225.1,904.2,60.5,904.2,60.5c104.2-39.2,192.3-95.8,256.5-172.4l0,0c0,0,0.1,0,0.1-0.1c4.6-6.4,9-11.8,13.2-16.4
					c21.5-23.9,38.2-26.7,57.9-24.7c28.2,2.8,52.3-0.4,57.5-14.6c4.9-13.4-6.2-31.3-18.9-55.8c-17.1-33-12.4-44.8-12.4-44.8
					s83.8,43,87.5,5.7c1.8-18.4-28.2-73.6-39.2-130.3c-29.3-151.6-48.3-229.6-51.1-240.9c-0.2-1-0.3-1.4-0.3-1.4
					c-6.6-26.8-14.7-52.6-24.4-78.2c-19.6-52.1-45.7-103-78.5-159.1c0,0-136.1-231.3-386.6-318c-64.4-22.2-131.2-42.4-206.3-44
					c-0.5,0-1-0.1-1.5,0c-20-0.5-40.4-0.1-61.3,1.1c-103.2,6-195.7,31.7-277,72.4c-75.4-27.7-419.5-149.3-468.5-84.8
					c-85.8,112.9,79.5,403.9,118.6,469.3c-25.5,59.1-45.3,111.2-58.9,163.7c-3,11.4-5.6,22.8-8,34.3c-0.2,1-0.4,2-0.6,3
					c-0.2,1-0.4,2.1-0.6,3.1c-0.2,1.1-0.4,2.2-0.6,3.2c-7.8,39.5-20,105-35.3,197.9C723.3,1044.3,694.8,1100.2,697.2,1118.6z"/>
			</g>
		</g>
	</g>
	<g class="st6">
		<g>
			<g>
				<path class="st4" d="M770.4,1153.3c-10.8,25.5-19.7,45.4-14.5,58.6c5.6,14.1,29.9,16.6,58,13c8.7-1.1,16.9-1.3,25.2,1
					c34.4,53,78.2,96.9,128.3,133c324.2,225.1,904.2,60.5,904.2,60.5c104.2-39.2,192.3-95.8,256.5-172.4l0,0c0,0,0.1,0,0.1-0.1
					c4.6-6.4,9-11.8,13.2-16.4c21.5-23.9,38.2-26.7,57.9-24.7c28.2,2.8,52.3-0.4,57.5-14.6c4.9-13.4-6.2-31.3-18.9-55.8
					c-1.1-2.2-2.2-4.3-3.1-6.3c-10.1,2.1-22.8,2.1-36.6,0.7c-19.7-2-36.4,0.8-57.9,24.7c-4.2,4.6-8.6,10.1-13.2,16.4
					c0,0-0.1,0-0.1,0.1l0,0c-64.2,76.6-152.3,133.3-256.5,172.4c0,0-580,164.6-904.2-60.5c-45.4-32.7-85.5-71.8-118.3-118.2
					c-7.9-11.2-21.3-17.4-34.9-15.7c-0.1,0-0.2,0-0.3,0c-15.4,2-29.7,2.1-40.4-0.6C771.8,1149.9,771.1,1151.5,770.4,1153.3z"/>
			</g>
		</g>
	</g>
	<g class="st9">
		<g>
			<g>
				<path class="st7" d="M1187.5,251c81.3-40.7,173.8-66.4,277-72.4c20.9-1.3,41.3-1.6,61.3-1.1c0.5-0.1,1,0,1.5,0
					c75.2,1.6,141.9,21.8,206.3,44c250.5,86.7,398.6,311.1,398.6,311.1c32.8,56.1,46.8,114,66.4,166.1c9.7,25.5,17.8,51.3,24.4,78.2
					c0,0,0.1,0.5,0.3,1.4c2.8,11.2,21.8,89.3,51.1,240.9c6.4,33,19.2,65.4,28.4,90.4c5.5-2.1,9.3-6.3,10-13.5
					c1.8-18.4-28.2-73.6-39.2-130.3c-29.3-151.6-48.3-229.6-51.1-240.9c-0.2-1-0.3-1.4-0.3-1.4c-6.6-26.8-14.7-52.6-24.4-78.2
					c-19.6-52.1-45.7-103-78.5-159.1c0,0-136.1-231.3-386.6-318c-64.4-22.2-131.2-42.4-206.3-44c-0.5,0-1-0.1-1.5,0
					c-20-0.5-40.4-0.1-61.3,1.1c-103.2,6-195.7,31.7-277,72.4c-75.4-27.7-419.5-149.3-468.5-84.8c-22.5,29.5-27.7,71.3-22.6,117.9
					c2.6-24.8,9.9-46.9,23.3-64.5C768,101.8,1112.2,223.3,1187.5,251z"/>
			</g>
		</g>
	</g>
	<g>
		<g>
			<g>
				<path class="st7" d="M1418.9,1164.4c6.2,94.6,107.6,118.6,230.2,110.6s220-45.1,213.8-139.7c-6.2-94.6-106.2-178.6-228.8-170.6
					C1511.5,972.7,1412.7,1069.8,1418.9,1164.4z"/>
			</g>
		</g>
	</g>
	<g class="st6">
		<g>
			<g>
				<path class="st4" d="M2237.7,331.8"/>
			</g>
		</g>
	</g>
	<g>
		<g>
			<g>
				<path class="st12" d="M804.1,207.1c0,0-15.9-4.4-12.4,32.4c6,63.1,44.4,219.8,121.4,272c0,0,96.7-169.1,124.6-189.8
					c27.9-20.8-36.4-36.5-56.1-58.3C962,241.6,815.4,200.5,804.1,207.1z"/>
			</g>
		</g>
	</g>
	<g class="st6">
		<g>
			<g>
				<path class="st4" d="M1037.7,321.7c-16.2,12.1-55.8,74.5-86,124.5c-46.9-69.1-71.2-174.9-75.8-224c-0.1-0.6-0.1-1.1-0.2-1.6
					c44.5,12.5,95,30.6,105.9,42.8C1001.3,285.1,1065.6,300.9,1037.7,321.7z"/>
			</g>
		</g>
	</g>
	<g>
		<g>
			<g>
				<path class="st4" d="M807,192.6c23.7,3.5,46.6,8.4,69.6,14.2c22.9,5.8,45.6,12.7,68,20.8c22.4,8.1,44.4,17.4,65.8,28.3
					c21.4,10.9,42.2,23.6,61.7,38.4l0,0l15.1,12.7l-14.7,12.1c-3.5,2.9-7.7,6.7-11.5,10.3c-3.9,3.7-7.7,7.4-11.5,11.3
					c-7.6,7.7-14.9,15.6-22.1,23.8c-14.3,16.3-27.8,33.5-40.7,51.2c-12.6,17.9-24.9,36-36,54.9c-5.8,9.3-10.9,19-16.4,28.6
					c-5.3,9.6-10.2,19.5-15.3,29.3l-0.1,0.3c-1.8,3.4-6,4.8-9.5,3c-3.3-1.7-4.6-5.7-3.2-9.1c4.5-10.2,8.8-20.6,13.5-30.8
					c4.9-10.1,9.4-20.4,14.7-30.3c10-20.1,21.4-39.6,33.1-58.8c12-19.1,24.7-37.8,38.5-55.8c6.8-9,14-17.9,21.4-26.6
					c3.7-4.4,7.5-8.6,11.4-12.9c4-4.3,7.8-8.3,12.5-12.8l0.4,24.8l0,0c-16.8-14.5-35.3-27.5-54.8-39.1c-19.5-11.6-40-21.9-61-31
					c-21-9.2-42.6-17.3-64.6-24.4c-21.9-7.1-44.4-13.4-66.7-18.2l-0.2,0c-3.9-0.8-6.3-4.6-5.5-8.5C799.8,194.5,803.3,192,807,192.6z
					"/>
			</g>
		</g>
	</g>
	<g>
		<g>
			<g>
				<path class="st4" d="M1191.1,1472.1c-21.3-3.9-42.5-8.7-63.4-15c-20.9-6.3-41.4-13.7-61.5-22.6c-10-4.4-20.1-9.4-29.6-14.7
					c-9.6-5.2-19-10.8-28.3-16.6c-9.3-5.8-18.4-11.9-27.2-18.4c-4.4-3.2-8.8-6.5-13.1-9.9l-6.4-5.1l-3.2-2.6l-1.6-1.3l-0.8-0.7
					l-0.4-0.3l-0.2-0.2c-0.1-0.1-1.5-1.4-1.3-1.3c-0.1-0.1,0.1,0.1,0.4,0.4c0.6,0.6,2.1,2,4.7,3.1l-3.3-1.8
					c-4.7-3.6-7.6-6.6-10.8-9.7c-3.1-3.1-6.1-6.1-9-9.2l-17.3-18.2c-11.4-12-22.9-23.7-34.7-34.9c-11.8-11.1-24.1-21.7-36.8-30.5
					c-6.4-4.4-12.9-8.4-19.4-11.3c-3.2-1.4-6.4-2.7-9.5-3.4c-3.3-0.9-5.1-1.1-10-1.6c-8.5-0.9-17.1-1.8-26.2-3.6
					c-4.5-0.9-9.2-2.1-14-3.8c-4.8-1.8-10-4-15.2-8c-2.6-2-5.2-4.6-7.3-7.8c-1.1-1.6-2-3.3-2.8-5.1c-0.8-1.8-1.2-3.4-1.8-5.1
					c-1.7-6.8-1.3-12.9-0.5-18.2c1.7-10.6,5-18.9,8.1-27.1c3.2-8.1,6.6-15.9,9.7-23.3c3-7.4,5.8-14.9,8.1-22.3
					c1.2-3.7,2.2-7.4,2.9-10.8l0.1-0.3c0-0.2,0,0-0.1,0.5c-0.1,0.4-0.1,0.7-0.1,1.1c-0.1,1.6,0,3.3,0.6,5c1.1,3.3,3.6,6.8,8.7,8.5
					c2.5,0.8,5.6,0.7,8,0c3.3-1.3,1.5-0.7,1.6-0.6l-1.5,0.8l-5.9,2.9c-7.9,3.8-15.9,7.3-24.3,10.4c-8.4,3.1-17,5.9-26.7,7.6
					c-4.9,0.8-10,1.4-15.8,1.1c-5.7-0.4-12.8-1.5-19.9-6.6c-3.4-2.5-6.5-6.1-8.3-9.8c-1.9-3.7-2.9-7.5-3.4-10.8
					c-0.8-8,0.4-12.8,1.3-17.6c2.1-9.4,4.8-17.4,7.5-25.5c10.8-31.9,21.7-62.5,26.7-93.8l16.5-98.8l8.7-49.4l4.6-24.7
					c1.6-8.4,3.1-16.2,5.2-25.3l-0.2,1.1l0.9-4.2l0.8-3.4l1.6-6.8l3.4-13.4c2.3-8.9,4.7-17.8,7.1-26.7c4.9-17.8,10.2-35.4,15.8-53
					c11.3-35.1,24.1-70,40-104l0.7,15.2c-21.5-35.9-41.4-72.5-60-110c-18.5-37.5-35.5-75.8-50.1-115.3
					c-14.5-39.5-26.7-80.2-32.8-123c-3-21.4-4.3-43.4-2.1-65.8c2.1-22.3,8.2-45.5,21.2-66c1.6-2.6,3.4-5,5.1-7.5
					c2.3-3.1,5.3-6.2,8.2-8.5c6-4.9,12.4-7.9,18.5-10.2c12.3-4.4,23.9-5.8,35.2-6.6c22.5-1.3,44,0.5,65.1,3.1
					c42.2,5.5,83.1,14.8,123.5,25.1c80.8,21,159.8,46.7,238.1,75l-14.3,0.8c26.8-13.4,54.3-25.1,82.6-35
					c28.3-9.8,57.1-17.9,86.3-24.2c29.2-6.3,58.8-10.7,88.5-13.4c29.7-2.7,59.5-4,89.5-3.2l-2.4,0.1c3.2-0.3,5.5,0.1,4.8,0l1.9,0.1
					l3.8,0.1l7.7,0.3l15.9,1.1c10.6,1,21.2,2.1,31.7,3.7c21,3.1,41.7,7.5,62.1,12.6c20.4,5.2,40.4,11.3,60.1,17.7
					c9.9,3.2,19.6,6.5,29.5,10c9.9,3.8,19.9,7,29.6,11.3c78.4,31.7,149.4,79,211.9,134.7c31.3,27.9,60.4,58.1,87.4,90.1
					c13.5,16,26.4,32.5,38.8,49.4c6.2,8.5,12.2,17.1,18,26c3,4.5,5.7,8.8,8.7,13.7l7.8,13.5c41.3,71.8,77.9,147.8,97.7,230.9
					l-36,8.2l-0.3-1.4l35.9-8.8c11.1,45.5,20.8,90.5,30.4,135.9l13.9,68l6.7,34c1.1,5.9,2.1,10.8,3.4,16.2
					c1.2,5.3,2.7,10.5,4.2,15.8c6.1,21.2,14.3,42.1,22.5,64.1c2,5.5,4.1,11.2,6,17.2c1.8,6.2,3.9,12,4.7,21.4c0.1,1.3,0.2,2.4,0.1,4
					c0,1.5-0.2,3-0.4,4.3c-0.4,2.7-1,5.5-2.2,8.5c-2.2,5.9-7,12.1-12.6,15.6c-5.5,3.6-10.9,5.2-15.5,5.9c-4.7,0.8-8.8,0.8-12.7,0.7
					c-15.2-0.9-27.3-4.8-39.2-8.9c-5.9-2.1-11.6-4.4-17.3-6.8l-8.4-3.8l-3.6-1.7c3.8,1.8,9.8,2.1,14.1,0.2c4.4-1.8,7.2-4.9,8.8-7.9
					c1.7-3.1,2.2-6.3,2.1-9.3c-0.1-0.8-0.1-1.5-0.3-2.2c-0.2-1-0.2-0.8-0.2-0.7l0.1,0.4c2.4,9.2,6.4,19.6,10.7,29.5
					c4.4,10,9.6,20.6,14.3,32.3c2.3,5.9,4.6,12.2,6.1,19.9c0.8,3.8,1.3,8.1,1.1,12.9c-0.1,4.8-1,10.1-3.6,15.9
					c-2.7,5.8-7,10.6-11.2,13.8c-4.3,3.2-8.5,5.3-12.5,6.8c-8,2.9-15.2,4-22.1,4.6c-6.9,0.5-13.5,0.4-19.9,0
					c-3.2-0.2-6.4-0.5-9.6-0.8l-1.9-0.2l-1.4-0.1c-0.9-0.1-1.9,0-2.8-0.1c-7.5,0.1-15.4,2.6-23,7.4c-7.6,4.7-14.9,11.4-21.1,19
					c-1.5,1.9-3,3.9-4.2,5.6l-1.3,1.9c-0.7,1-1.2,1.6-1.7,2.4l-3.1,3.9c-4,4.9-7.9,9.3-11.9,13.8l-6,6.6c-0.8,0.9-1,1-1.2,1.3
					l-0.8,0.8l-1.6,1.6l-3.2,3.1c-4.3,4.1-8.5,8.4-13,12.3c-4.5,3.9-8.8,8.1-13.4,11.9l-13.8,11.4c-18.7,14.8-38.6,28-59,40.1
					c-20.5,11.9-41.6,22.7-63.2,32c-43.2,18.8-87.8,33-133.1,43.6c-3.7,0.9-7.4-1.4-8.2-5.1c-0.8-3.3,1-6.6,4-7.9l0.1,0
					c21.2-9.1,42.4-17.9,63.2-27.4c10.4-4.8,20.8-9.4,31-14.5c10.3-4.8,20.4-10,30.5-15.2c20.1-10.5,39.6-21.7,58.4-33.9
					c18.9-12,37-25.2,54.3-39.3l12.7-10.8c4.2-3.6,8.2-7.5,12.4-11.2c4.2-3.7,8-7.7,11.9-11.6l5.5-5.4l5.5-6.3
					c3.7-4.2,7.3-8.5,10.5-12.6l2.2-2.9c0.3-0.4,0.7-0.9,0.8-1.1l1.1-1.7c2-3,4-5.7,6.1-8.3c8.3-10.4,17.9-19.8,29.9-27.4
					c11.8-7.6,26.4-13.2,42-13.7c1.9,0,3.9-0.1,5.8,0.1l5.3,0.4c2.6,0.2,5.2,0.4,7.7,0.6c5.1,0.2,10.1,0.2,14.7-0.2
					c4.6-0.4,8.9-1.2,11.7-2.3c1.4-0.5,2.3-1.1,2.7-1.4c0.3-0.3,0,0-0.3,0.6c-0.3,0.8,0.4-1.5-0.4-5.2c-0.7-3.7-2.2-8.3-4.2-13.1
					c-3.9-9.8-8.8-19.9-13.7-31c-4.9-11.2-9.4-22.4-12.8-35.5l-0.2-0.6l-0.3-1.2c-0.2-0.9-0.3-1.8-0.3-2.7
					c-0.2-3.7,0.5-7.7,2.5-11.4c2-3.6,5.3-7.3,10.4-9.4c5-2.2,11.8-1.9,16.2,0.2l4.2,2l7.4,3.3c5,2.1,10,4.1,14.9,5.9
					c9.8,3.5,20.2,6.3,28,6.7c3.8,0.4,6.7-0.8,5.1-0.1c-0.7,0.4-1.8,1.8-1.9,2.4c-0.1,0.3-0.1,0.3-0.1,0.1c0-0.2,0-0.1,0,0
					c0,0.2,0-0.2,0-0.3c-0.1-2.2-1.4-7.5-2.9-12.3c-1.6-5-3.4-10.2-5.4-15.5c-7.8-21.3-16.4-43.5-23-66.7
					c-1.7-5.8-3.2-11.7-4.6-17.6c-1.4-5.9-2.6-12.2-3.7-17.7l-6.6-33.9l-13.6-67.7c-9.3-45-18.9-90.3-29.6-134.5l35.9-8.8l0.3,1.4
					l-36,8.2c-9.1-37.9-22.6-76.3-38.6-112.8c-16.1-36.7-34.9-72.5-55.1-107.7l-7.6-13.1c-2.3-3.8-5.1-8.2-7.8-12.2
					c-5.4-8.3-11.2-16.5-17-24.6c-11.8-16.2-24.2-32-37.1-47.3c-25.9-30.6-53.9-59.6-83.8-86.3c-59.8-53.3-127.4-98.1-201.2-128
					c-9.1-4-18.6-7-27.9-10.6c-9.5-3.4-19.2-6.6-28.8-9.7c-19.2-6.3-38.5-12.1-57.8-17.1c-19.4-4.9-38.8-9-58.4-11.9
					c-9.8-1.5-19.6-2.6-29.4-3.5l-14.7-1l-7.7-0.3l-3.8-0.1l-1.9-0.1c-1.9-0.1-1,0.1,0.9-0.1l-2.4,0.1c-28.3-0.8-56.8,0.5-85.1,3.1
					c-28.3,2.6-56.5,6.8-84.2,12.6c-27.8,5.9-55.2,13.5-82,22.7c-26.8,9.3-53,20.3-78.4,32.9l-7,3.5l-7.3-2.7
					c-77-28.2-155.3-54-234.4-74.9c-39.5-10.3-79.4-19.4-119.2-24.7c-19.8-2.6-39.8-4.2-58.5-3.2c-9.3,0.6-18.4,1.9-25.6,4.5
					c-3.6,1.3-6.6,2.9-8.6,4.5c-1.1,0.9-1.7,1.5-2.5,2.6c-1.2,1.8-2.6,3.4-3.7,5.3c-9.3,14.5-14.4,32.3-16.3,51
					c-1.9,18.7-0.9,38.3,1.7,57.8c5.4,39.1,16.8,78.1,30.6,116.2c13.9,38.1,30.3,75.5,48.3,112.2c18,36.7,37.4,72.8,58.3,107.9
					l4.4,7.4l-3.7,7.8c-15.1,32-27.7,65.7-38.8,99.9c-5.5,17.1-10.8,34.4-15.7,51.7c-2.4,8.7-4.8,17.4-7.1,26.1l-3.3,13.1l-3,12.2
					l-0.2,1.1c-1.7,7.2-3.4,15.7-4.9,23.7l-4.7,24.4l-8.9,49.1l-16.8,98.5c-5.7,34.7-17.6,67.2-28.2,98.4
					c-2.6,7.7-5.1,15.5-6.7,22.4c-0.8,3.3-1.1,6.8-1,7.2c0.1,0.8,0.3,1.1,0.2,1.1c0,0-0.2-0.3-0.3-0.4c-0.3-0.1,1.1,0.7,3.7,0.7
					c2.5,0.2,5.7-0.1,9.1-0.7c6.8-1.1,14.1-3.4,21.4-6c7.3-2.7,14.6-5.8,21.7-9.3l5.3-2.6l1.3-0.7c0.6-0.2-0.8,0.2,3-1.3
					c2.9-1,6.5-1,9.5-0.1c6.1,2,9.4,6.4,10.8,10.7c0.7,2.2,0.9,4.4,0.8,6.5c0,0.5-0.1,1-0.2,1.5l-0.2,0.9l-0.1,0.4
					c-1.1,4.7-2.3,9-3.6,13.3c-2.7,8.5-5.8,16.7-9.1,24.7c-3.3,8-6.6,15.4-9.6,22.9c-2.9,7.3-5.6,14.7-6.5,20.7
					c-0.5,2.9-0.4,5.3-0.1,6.7c0.1,0.2,0.2,0.6,0.3,0.8c0.1,0.1,0.1,0.2,0.2,0.4c0.2,0.3,0.5,0.7,1.2,1.3c2.8,2.3,9.8,4.8,17,6.2
					c7.3,1.5,15.2,2.5,23.3,3.3c3.4,0.3,9.9,1,14.6,2.4c5,1.3,9.6,3.2,14,5.1c8.7,4,16.5,8.8,23.8,13.9c14.6,10.3,27.6,21.6,40,33.4
					c12.4,11.8,24.2,23.9,35.7,36.1l17.1,18.2c2.8,3,5.7,5.9,8.5,8.7c2.7,2.7,5.7,5.6,7.7,7.1l-3.3-1.8c2.7,1.1,4.3,2.5,4.9,3.2
					c0.4,0.3,0.5,0.6,0.5,0.5c0.2,0.2-1.1-1.1-1.2-1.2l0.2,0.2l0.4,0.3l0.7,0.6l1.5,1.2l3,2.5l6.1,4.8c4.1,3.2,8.2,6.3,12.3,9.4
					c8.3,6.1,16.8,12.1,25.5,17.7c8.7,5.6,17.6,11,26.6,16.1c9.1,5.2,18,9.8,27.5,14.1c37.6,17.6,77.4,30.5,118.3,39.9l0.1,0
					c6.1,1.4,9.9,7.5,8.5,13.5C1202.8,1469.5,1197,1473.2,1191.1,1472.1z"/>
			</g>
		</g>
	</g>
	<g>
		<g>
			<g>
				<path class="st4" d="M1177.3,1054.6c-4.2-17.1-4.8-34-3.5-51.5c1.5-17.3,5.5-35,13.5-51.8c7.9-16.7,20-32.6,35.9-44.1
					c15.7-11.7,34.8-18.5,52.9-21.2c18.3-3,38-2.7,56.6,3.1c18.7,5.7,35.5,16.7,48.1,30.6c3,3.6,6.1,7.1,8.8,10.8
					c2.5,3.9,5.1,7.7,7.4,11.6c2.1,4,4.3,8,6.1,12.1c1.7,4.1,3.4,8.3,4.8,12.5c5.5,16.8,8,34.2,7.1,51.3c-0.2,3.8-3.4,6.7-7.2,6.5
					c-3-0.2-5.4-2.2-6.2-5l0-0.1c-4.2-15.2-9.8-29.5-17.2-42.5l-5.8-9.4c-2-3-4.3-5.8-6.4-8.8c-2.3-2.8-4.8-5.3-7.1-7.9
					c-2.4-2.5-5.1-4.7-7.6-7.1c-10.5-8.8-22.4-15-35-17.8c-12.6-2.9-26.1-2.6-39.7-0.2c-27.5,4.5-49.2,18.8-64,42.7
					c-15,23.6-23.2,54.3-28.2,85.1l-0.1,0.5c-0.6,3.7-4.1,6.2-7.8,5.6C1180.1,1059.3,1177.9,1057.2,1177.3,1054.6z"/>
			</g>
		</g>
	</g>
	<g>
		<g>
			<g>
				<path class="st4" d="M1831.3,976.7c-4.2-16.2-4.8-32.3-3.7-48.9c1.4-16.5,5.1-33.3,12.7-49.4c7.5-15.9,19-31.2,34.3-42.1
					c15-11.2,33.3-17.7,50.5-20.2c17.4-2.8,36.2-2.5,54.1,3c17.8,5.4,33.9,16,45.9,29.3c12.1,13.2,20.5,28.8,25.7,44.8
					c5.2,16,7.5,32.6,6.5,48.8c-0.2,3.8-3.5,6.6-7.2,6.4c-3-0.2-5.4-2.2-6.1-4.9l0-0.1c-4.2-14.3-9.5-27.8-16.6-40
					c-7.1-12.1-15.6-22.8-25.5-31.1c-9.9-8.2-21-13.9-32.8-16.5c-11.8-2.7-24.4-2.4-37.1-0.1c-25.8,4.3-45.9,17.5-59.9,39.9
					c-14.2,22.1-22.1,51-27.2,80.1l-0.1,0.5c-0.6,3.7-4.2,6.2-7.9,5.6C1834,981.2,1832,979.2,1831.3,976.7z"/>
			</g>
		</g>
	</g>
	<path class="st13" d="M508.2,2083.7c-2.6-8.6-5.1-17.2-7.7-25.8c-8,8.7-16.1,17.4-24.1,26.1c58.9-143.4,327.2-757.4,885.2-932.7
		c101.4-31.9,270.1-82.4,460.8-20.3c190.9,62.1,357.1,221.8,430.5,402c2.9,7.1,5.2,13.2,6.8,17.3c-7.5-6.8-14.9-13.7-22.4-20.5
		c-0.8,4.7-1.6,9.4-2.4,14.1c-23.2-52.9-64.2-130.1-135.7-206.3c-29.8-31.8-130.2-133.3-274.3-183.2c-207.9-72-400.6,0.1-510.3,41.2
		C807.7,1385.3,556.7,1966.1,508.2,2083.7z"/>
	<g class="st0">
		<g class="st1">
			<g>
				<path class="st14" d="M1658.2,1103.8c229.5,0,392.3,38.4,516.6,116c52.2,32.6,106.4,100.1,87.8,172.3
					c-29.7,115.6-270.6,143.8-604.4,143.8s-574.7-28.2-604.4-143.8c-18.6-72.3,35.6-139.7,87.8-172.3
					C1265.9,1142.2,1428.7,1103.8,1658.2,1103.8z"/>
			</g>
		</g>
	</g>
	<g class="st15">
		<g class="st1">
			<g>
				<path class="st7" d="M2264,1385.9c-9.8-51-50.1-95-89.2-119.4c-124.3-77.5-287.1-116-516.6-116c-229.5,0-392.3,38.4-516.6,116
					c-39.1,24.5-79.4,68.5-89.2,119.4c-14.1-69.9,38.4-134.5,89.2-166.2c124.3-77.5,287.1-116,516.6-116
					c229.5,0,392.3,38.4,516.6,116C2225.6,1251.4,2278.1,1316,2264,1385.9z"/>
			</g>
		</g>
	</g>
	<g class="st16">
		<g class="st1">
			<g>
				<path class="st4" d="M2262.6,1392c-29.7,115.6-270.6,143.8-604.4,143.8s-574.7-28.2-604.4-143.8c-7.7-30-2.9-59.1,9.2-85.3
					c54.3,96.6,284.5,121.1,595.3,121.1s541-24.5,595.3-121.1C2265.5,1332.9,2270.3,1362.1,2262.6,1392z"/>
			</g>
		</g>
	</g>
	<g class="st0">
		<g class="st1">
			<g>
				<path class="st4" d="M1658.2,1554.3c-189.5,0-322.9-9.2-419.9-28.9c-120.2-24.5-186.4-66.6-202.4-128.7
					c-20.3-79,33.6-153.7,95.9-192.6c52.8-33,110.7-58.2,176.9-77.2l12-3.4l7.7,9.8c21.2,27.1,41.5,55.5,61.2,83
					c6.1,8.5,12.2,17,18.3,25.4c1.6,2.2,3.5,5,5.6,8c15.7,22.8,27,36.1,33.7,39.8c3.4-8.9,3.3-34.6-2.6-63
					c-6.7-32.5-19.1-65.2-36.8-97.1l-12.8-23l26-4.2c43.8-7,91.4-11.9,141.5-14.5l9.1-0.5l5.9,6.9c3.9,4.6,7.8,9.2,11.7,13.8
					c29,34.9,55.9,72.5,81.9,108.8c6,8.3,12,16.7,18,25c1.6,2.2,3.5,5,5.6,8.1c15.7,22.7,27,36.1,33.6,39.7c3.4-8.9,3.3-34.6-2.6-63
					c-7.9-37.9-23.3-75.8-45.9-112.7l-17.6-28.8l33.7,0.6c56.3,1.1,109.5,4.7,158.2,10.7l7.1,0.9l4.7,5.5c1.5,1.7,2.9,3.4,4.3,5.1
					c29,34.9,55.9,72.5,81.9,108.8c6,8.4,12,16.7,18,25c1.6,2.2,3.5,5,5.6,8.1c15.7,22.7,27,36.1,33.7,39.7c3.4-8.9,3.3-34.6-2.6-63
					c-5.2-25.1-13.8-50.4-25.6-75.3l-17.4-36.6l39,10.9c68.1,19.1,127.5,44.8,181.6,78.5c62.4,38.9,116.2,113.6,95.9,192.6l0,0
					c-16,62.2-82.2,104.3-202.4,128.7C1981.2,1545.1,1847.7,1554.3,1658.2,1554.3z M1306.9,1165.9c-57.9,17.6-108.9,40.4-155.5,69.5
					c-49.3,30.8-95.3,91.5-79.7,152.1c29.6,115.1,329,129.9,586.5,129.9s556.9-14.8,586.5-129.9c15.6-60.6-30.4-121.3-79.7-152.1
					c-41.1-25.6-85.6-46.4-135-63c5.5,15.5,9.9,31,13.1,46.6c7.4,35.6,14.2,96.9-23,107.2c-30.6,8.4-57.1-30-74.7-55.4
					c-1.9-2.8-3.7-5.3-5.2-7.4c-6-8.4-12.1-16.8-18.1-25.2c-25.5-35.5-51.8-72.3-79.7-106c-35.9-4.2-74.4-7.1-114.7-8.7
					c16.1,31.4,27.6,63.4,34.2,95.5c7.4,35.6,14.2,96.9-23,107.2c-30.7,8.4-57.1-30-74.7-55.4c-1.9-2.8-3.7-5.3-5.2-7.4
					c-6-8.4-12-16.7-18-25.1c-25.6-35.8-52.2-72.8-80.3-106.8c-1.8-2.1-3.5-4.2-5.3-6.4c-36,2.1-70.6,5.4-103.2,9.8
					c13.2,27.7,22.8,55.9,28.6,84.1c7.4,35.6,14.2,96.9-23,107.2c-30.6,8.4-57.2-30-74.7-55.5c-1.9-2.8-3.6-5.3-5.1-7.3
					c-6.1-8.5-12.2-17-18.4-25.6C1342.5,1214,1325,1189.4,1306.9,1165.9z M2262.6,1392.1L2262.6,1392.1L2262.6,1392.1z"/>
			</g>
		</g>
	</g>
	<g class="st0">
		<g class="st1">
			<g>
				<g>
					<path class="st14" d="M1452.9,1308.3c-20.7,5.7-48-39.2-60-55.8c-26.1-36.2-51.7-72.9-79.1-107.9
						c34.3-9.8,70.9-17.9,110.1-24.2c17.7,31.9,31.3,66.4,38.7,102.3C1466.7,1241.9,1475.8,1302,1452.9,1308.3z"/>
				</g>
			</g>
		</g>
	</g>
	<g class="st16">
		<g class="st1">
			<g>
				<g>
					<path class="st4" d="M1467.4,1280.8c-1.3,13.8-5.3,25-14.5,27.5c-20.7,5.7-48-39.3-59.9-55.8c-26.1-36.2-51.7-72.9-79.1-107.9
						c12.8-3.7,25.9-7.1,39.4-10.2c23.1,30.4,45.1,61.8,67.5,92.8C1430.2,1240.4,1449.5,1271.6,1467.4,1280.8z"/>
				</g>
			</g>
		</g>
	</g>
	<g class="st0">
		<g class="st1">
			<g>
				<g>
					<path class="st14" d="M1734,1308.3c-20.7,5.7-48-39.2-60-55.8c-32.4-44.9-64-90.5-99.1-132.8c-3.8-4.5-7.6-9-11.4-13.5
						c30.3-1.6,61.8-2.4,94.7-2.4c12.7,0,25.1,0.1,37.4,0.4c22.3,36.4,39.5,76.5,48.3,118.6C1747.8,1241.9,1757,1302,1734,1308.3z"
						/>
				</g>
			</g>
		</g>
	</g>
	<g class="st0">
		<g class="st1">
			<g>
				<g>
					<path class="st14" d="M2015.2,1308.3c-20.7,5.7-48-39.2-60-55.8c-32.4-44.9-64-90.5-99.1-132.8c-1.4-1.7-2.8-3.3-4.2-5
						c52.9,6.5,101.4,16.1,146.1,28.6c12,25.3,21.3,51.9,27,79.5C2028.9,1241.9,2038.1,1302,2015.2,1308.3z"/>
				</g>
			</g>
		</g>
	</g>
	<g class="st17">
		<g class="st1">
			<g>
				<g>
					<path class="st7" d="M1452.9,1308.3c-20.7,5.7-48-39.2-60-55.8c-26.1-36.2-51.7-72.9-79.1-107.9c34.3-9.8,70.9-17.9,110.1-24.2
						c17.7,31.9,31.3,66.4,38.7,102.3C1466.7,1241.9,1475.8,1302,1452.9,1308.3z"/>
				</g>
			</g>
		</g>
	</g>
	<g class="st17">
		<g class="st1">
			<g>
				<g>
					<path class="st7" d="M1734,1308.3c-20.7,5.7-48-39.2-60-55.8c-32.4-44.9-64-90.5-99.1-132.8c-3.8-4.5-7.6-9-11.4-13.5
						c30.3-1.6,61.8-2.4,94.7-2.4c12.7,0,25.1,0.1,37.4,0.4c22.3,36.4,39.5,76.5,48.3,118.6C1747.8,1241.9,1757,1302,1734,1308.3z"
						/>
				</g>
			</g>
		</g>
	</g>
	<g class="st17">
		<g class="st1">
			<g>
				<g>
					<path class="st7" d="M2015.2,1308.3c-20.7,5.7-48-39.2-60-55.8c-32.4-44.9-64-90.5-99.1-132.8c-1.4-1.7-2.8-3.3-4.2-5
						c52.9,6.5,101.4,16.1,146.1,28.6c12,25.3,21.3,51.9,27,79.5C2028.9,1241.9,2038.1,1302,2015.2,1308.3z"/>
				</g>
			</g>
		</g>
	</g>
	<g class="st16">
		<g class="st1">
			<g>
				<g>
					<path class="st4" d="M2029.3,1284.5c-1.7,12.1-5.8,21.6-14.1,23.9c-20.7,5.7-48-39.3-59.9-55.8c-32.4-44.9-64-90.5-99.1-132.8
						c-1.4-1.7-2.8-3.3-4.1-5c19.1,2.4,37.6,5.1,55.6,8.3c29.2,36.8,56.2,75.6,83.8,113.9C1999.3,1248,2014.2,1271.7,2029.3,1284.5z
						"/>
				</g>
			</g>
		</g>
	</g>
	<g class="st0">
		<g class="st1">
			<g>
				<g>
					<path class="st4" d="M1449.1,1327.3c-27,0-50.2-33.7-66-56.7c-1.9-2.8-3.6-5.3-5.1-7.3c-6.1-8.5-12.2-17-18.4-25.6
						c-19.5-27.2-39.6-55.3-60.3-81.8l-16.9-21.6l26.3-7.5c34.9-10,72.7-18.3,112.3-24.6l12.8-2.1l6.3,11.3
						c19.5,35.2,33.2,71.4,40.7,107.5c7.4,35.6,14.2,96.9-23,107.2l0,0C1454.8,1327,1451.9,1327.3,1449.1,1327.3z M1452.9,1308.3
						L1452.9,1308.3L1452.9,1308.3z M1345.3,1155.3c15.2,20.2,29.9,40.8,44.3,60.9c6.1,8.5,12.2,17,18.3,25.4c1.6,2.2,3.5,5,5.6,8
						c15.7,22.8,27,36.1,33.7,39.8c3.4-8.9,3.3-34.6-2.6-63c-5.9-28.6-16.3-57.4-30.7-85.6C1390.2,1145,1367.2,1149.8,1345.3,1155.3
						z"/>
				</g>
			</g>
		</g>
	</g>
	<g class="st0">
		<g class="st1">
			<g>
				<g>
					<path class="st4" d="M1730.2,1327.3c-27,0-50.1-33.6-66-56.6c-1.9-2.8-3.7-5.3-5.2-7.4c-6-8.4-12-16.7-18-25.1
						c-25.6-35.8-52.2-72.8-80.3-106.8c-3.7-4.5-7.4-8.9-11.2-13.3l-24.6-28.5l37.6-2c30.5-1.6,62.7-2.4,95.7-2.4
						c13.1,0,25.8,0.1,37.7,0.4l10.1,0.2l5.3,8.6c24.9,40.5,41.9,82.4,50.6,124.5c7.4,35.6,14.2,96.9-23,107.2l0,0
						C1736,1327,1733.1,1327.3,1730.2,1327.3z M1734,1308.3L1734,1308.3L1734,1308.3z M1601.5,1123.1c24.3,30.5,47.3,62.5,69.6,93.6
						c6,8.3,12,16.7,18,25c1.6,2.2,3.5,5,5.6,8.1c15.7,22.7,27,36.1,33.6,39.7c3.4-8.9,3.3-34.6-2.6-63
						c-7.2-35-20.9-69.9-40.8-104.1c-8.6-0.1-17.6-0.2-26.8-0.2C1639,1122.2,1620,1122.5,1601.5,1123.1z"/>
				</g>
			</g>
		</g>
	</g>
	<g class="st0">
		<g class="st1">
			<g>
				<g>
					<path class="st4" d="M2011.4,1327.3c-27,0-50.1-33.6-66-56.6c-1.9-2.8-3.7-5.3-5.2-7.4c-6-8.4-12.1-16.8-18.1-25.2
						c-25.6-35.8-52.1-72.8-80.3-106.7c-1.3-1.6-2.7-3.2-4-4.8l-30.7-36.1l47,5.8c53.2,6.6,103.3,16.4,148.8,29.1l8.1,2.3l3.6,7.6
						c13,27.5,22.6,55.6,28.4,83.6c7.4,35.6,14.2,96.9-23,107.2C2017.1,1327,2014.2,1327.3,2011.4,1327.3z M1895.7,1139.7
						c19.5,25.4,38.2,51.5,56.5,76.9c6,8.4,12,16.7,18,25c1.6,2.2,3.5,5,5.6,8.1c15.7,22.7,27,36.1,33.7,39.7
						c3.4-8.9,3.3-34.6-2.6-63c-4.7-22.5-12.1-45.2-22.1-67.7C1956.7,1151.3,1926.9,1144.9,1895.7,1139.7z"/>
				</g>
			</g>
		</g>
	</g>
	<g class="st16">
		<g class="st1">
			<g>
				<path class="st4" d="M1802.1,1175.8c-55.2,33.9-110.7-10.7-136-44.2c0,0-6.3,10.1-17.6,22.5c18.5,24.9,36.4,50.4,54.6,75.5
					c9.3,12.9,27.7,42.7,45.2,52.9c-1.4,13-5.5,23.4-14.3,25.8c-20.7,5.7-48-39.3-60-55.8c-17.8-24.6-35.3-49.5-53.4-73.9
					c-24.2,16.8-56.8,27.8-94.1,10.8c-54.1-24.6-32.1-100.5-32.1-100.5l323.4-5.6C1817.9,1083.4,1844.9,1149.5,1802.1,1175.8z"/>
			</g>
		</g>
	</g>
	<g>
		<g>
			<g>
				<path class="st7" d="M1805.5,1060.3c0,0,24.9,60.9-14.5,85.2c-50.9,31.3-102-9.8-125.4-40.7c0,0-54.1,87.3-128.6,53.4
					c-49.9-22.7-29.6-92.6-29.6-92.6"/>
			</g>
		</g>
	</g>
	<g>
		<g>
			<g>
				<path class="st4" d="M1571.1,1177.3c-12.5,0-25.5-2.6-39-8.8c-46.7-21.2-43.9-78.9-35.9-106.4c1.8-6.1,8.2-9.6,14.3-7.9
					c6.1,1.8,9.6,8.2,7.9,14.3c-0.7,2.4-16.9,60.6,23.3,78.9c64.3,29.3,112-45.7,114-49l8.9-14.2l10.1,13.4
					c5.6,7.4,56.1,71.1,110.2,37.9c30.6-18.8,10.1-70.4,9.9-71c-2.4-5.9,0.4-12.6,6.3-15c5.9-2.4,12.6,0.4,15,6.3
					c1.2,2.9,28.1,70.3-19.2,99.4c-46,28.3-96.7,5.8-130.7-31.6C1646.8,1148.5,1612.4,1177.3,1571.1,1177.3z"/>
			</g>
		</g>
	</g>
	<g class="st6">
		<g>
			<g>
				<path class="st4" d="M1536.9,1158.1c74.5,33.9,128.6-53.4,128.6-53.4c23.4,30.9,74.5,72,125.4,40.7c25.8-15.9,13.4-61,9.2-80.9
					c-2.9,10.5-7.7,30.7-14.1,40c-24.6,36-85.7-28.4-109.1-59.3c0,0-72.8,118.8-140.3,72.5c-18.8-12.9-19.2-39.6-22.6-55.9
					C1510.6,1082.4,1499.3,1141,1536.9,1158.1z"/>
			</g>
		</g>
	</g>
	<g>
		<g>
			<g>
				<path class="st4" d="M1680.6,998.8c2.3,8.7,4,17.1,5.5,25.8c1.5,8.7,2.7,17.4,3.3,26.3c0.6,8.9,1,17.9,0.3,27.3
					c-0.7,9.3-2.1,18.9-5.7,28.8l0,0.1c-2.6,7.2-10.6,10.9-17.8,8.3c-7.2-2.6-10.9-10.6-8.3-17.8c0.2-0.6,0.5-1.2,0.8-1.8
					c3.1-5.9,5.4-13.1,7-20.7c1.7-7.6,2.4-15.7,2.9-23.8c0.5-8.2,0.5-16.5,0.2-24.8c-0.3-8.3-0.9-16.8-1.9-24.8l0-0.2
					c-0.5-3.8,2.3-7.3,6.1-7.8C1676.5,993.2,1679.7,995.5,1680.6,998.8z"/>
			</g>
		</g>
	</g>
	<g>
		<g>
			<g>
				<path class="st4" d="M1570.4,1019.6c4.6,25.8,55.6,40.7,92.7,40.5c28-0.1,72.7-19,72.3-47.1c-0.3-22.2-25.5-37.8-92.1-31.8
					C1588.8,986.2,1567.4,1002.3,1570.4,1019.6z"/>
			</g>
		</g>
	</g>
	<g class="st18">
		<g>
			<g>
				<path class="st7" d="M1645.6,995.6c-1,4.7,11.2,10.3,20.9,10.2c5.5,0,25.3-0.4,26.5-5.5c1.2-5.1-4.4-9.8-22.8-11.3
					C1653.5,987.6,1646.6,990.9,1645.6,995.6z"/>
			</g>
		</g>
	</g>
	<g>
		<g>
			<g>
				<path class="st4" d="M1823.8,1656c16.3-7.9,31.8-15.9,46.8-24.5c14.9-8.7,29.3-17.7,42.6-28c13.5-10.1,25.4-21.7,36.2-34
					l7.9-9.4l7-10l3.6-5l3.1-5.3c2-3.5,4.2-7,6.3-10.4l0.9-1.4c4.2-6.8,13.1-8.8,19.8-4.6c6.4,4,8.6,12.2,5.2,18.8
					c-2.2,4.2-4.3,8.5-6.6,12.7l-3.4,6.3l-4.1,5.9c-2.7,3.9-5.4,7.8-8.3,11.6l-9.4,10.7c-13.1,13.7-27.7,25.8-43.7,35.2
					c-15.9,9.6-32.6,17.6-50.1,22.9c-8.7,2.7-17.6,4.9-26.6,6.4C1842.1,1655.4,1832.9,1656.3,1823.8,1656z"/>
			</g>
		</g>
	</g>
	<g>
		<g>
			<g>
				<path class="st4" d="M1397.3,1639c-37.2-5.9-73.5-16.3-109-28.8c-35.6-12.5-70.2-28-103.7-45.9c-33.4-17.9-65.7-38.7-95.4-63.2
					c-14.7-12.5-29-25.5-41.9-40c-12.9-14.5-24.9-29.9-35.2-46.7c-4.2-6.8-2.1-15.7,4.7-19.9c6.6-4,15.1-2.2,19.5,4.1l0.2,0.3
					c10,14.7,20.9,28.8,33,42c12.2,13.1,25.2,25.7,38.9,37.5c27.4,23.6,57.5,44.6,88.9,63.6c31.4,19.1,64.3,35.9,97.7,52
					C1328.4,1610.1,1362.5,1624.9,1397.3,1639z"/>
			</g>
		</g>
	</g>
	<g>
		<g>
			<g>
				<path class="st7" d="M1700.4,2253.2c2.9,94.6,23.3,207.6,89.2,216.4c117.4,15.8,161.4-138.6,175.5-211.2
					c-50,15.2-81.3,20.3-153.5,16.6C1769.2,2272.8,1723.6,2262.5,1700.4,2253.2z"/>
			</g>
		</g>
	</g>
	<g class="st6">
		<g>
			<g>
				<path class="st4" d="M1667.9,2253.2c-2.9,94.6-23.3,207.6-89.2,216.4c-117.4,15.8-161.4-138.6-175.5-211.2
					c50,15.2,81.3,20.3,153.5,16.6C1599.2,2272.8,1644.8,2262.5,1667.9,2253.2z"/>
			</g>
		</g>
	</g>
	<g class="st6">
		<g>
			<g>
				<path class="st4" d="M1700.4,2253.2c2.9,94.6,23.3,207.6,89.2,216.4c117.4,15.8,161.4-138.6,175.5-211.2
					c-50,15.2-81.3,20.3-153.5,16.6C1769.2,2272.8,1723.6,2262.5,1700.4,2253.2z"/>
			</g>
		</g>
	</g>
	<g>
		<g>
			<g>
				<path class="st4" d="M1797.7,2477.3c-4.4,0-8.9-0.2-13.4-0.7c-123-13.4-106-294.5-105.2-306.4c0.7-10.2,9.4-17.7,19.6-17.2
					c10.2,0.7,17.9,9.5,17.2,19.6c-7,107,10.7,260.6,72.3,267.3c98.1,10.7,157.9-159.9,177.5-216c1.7-4.9,3.2-9.2,4.5-12.7
					c29.3-80.1,75.9-255.1,59.5-527.3c-0.6-10.2,7.1-18.9,17.3-19.6c10.2-0.6,18.9,7.1,19.6,17.3c16.8,278.9-31.4,459.4-61.7,542.3
					c-1.2,3.3-2.7,7.4-4.3,12.2C1977.2,2303.1,1916.2,2477.2,1797.7,2477.3z"/>
			</g>
		</g>
	</g>
	<g class="st6">
		<g>
			<g>
				<path class="st4" d="M611.9,1719c-8.7,18-20.7,31.5-33.9,38.6c-76.5,41.1-132.7,5.6-172.8-80.9c-6.9-14.8-37.3-70.6-87.4-49.2
					c-8,3.4-15.2,7.6-21.8,12.4c-69.3,50.9-63.6,177.3-9.4,301.8l-22.9-0.8c0,0-97.6-261,31.3-363.8
					c133.5-106.5,186.4,38,236.3,104.4C561.3,1721.4,592.1,1723.6,611.9,1719z"/>
			</g>
		</g>
	</g>
	<g class="st6">
		<g>
			<g>
				<path class="st4" d="M1341.7,2310.2c-9.2,30.8-27.2,51.7-47.8,51.7c-16.5,0-31.3-13.4-41.3-34.5
					C1281.6,2335.1,1314,2334.1,1341.7,2310.2z"/>
			</g>
		</g>
	</g>
	<g class="st6">
		<g>
			<g>
				<path class="st4" d="M2148.6,2309.3c-22.4,26.8-49.5,39.9-69.5,30.6c-9.1-4.2-15.6-12.5-19.5-23.6c17.2,8.7,38.8,12,65.7,4.5
					C2132.9,2318.8,2140.7,2314.9,2148.6,2309.3z"/>
			</g>
		</g>
	</g>
	<g>
		<g>
			<g>
				<g>
					
						<ellipse transform="matrix(0.42 -0.9075 0.9075 0.42 -804.7029 3220.9724)" class="st19" cx="2117.7" cy="2240.1" rx="93.7" ry="51.5"/>
				</g>
			</g>
		</g>
		<g>
			<g>
				<g>
					
						<ellipse transform="matrix(0.42 -0.9075 0.9075 0.42 -669.9603 3131.9468)" class="st19" cx="2115.4" cy="2090.1" rx="34.7" ry="19.1"/>
				</g>
			</g>
		</g>
		<g>
			<g>
				<g>
					
						<ellipse transform="matrix(0.42 -0.9075 0.9075 0.42 -619.67 3186.4087)" class="st19" cx="2183.1" cy="2078" rx="48.1" ry="26.5"/>
				</g>
			</g>
		</g>
		<g>
			<g>
				<g>
					
						<ellipse transform="matrix(0.42 -0.9075 0.9075 0.42 -666.8423 3252.1614)" class="st19" cx="2211" cy="2147.8" rx="31.9" ry="17.5"/>
				</g>
			</g>
		</g>
	</g>
	<g>
		<g>
			<g>
				<path class="st7" d="M1667.9,2253.2c-2.9,94.6-23.3,207.6-89.2,216.4c-117.4,15.8-161.4-138.6-175.5-211.2
					c50,15.2,81.3,20.3,153.5,16.6C1599.2,2272.8,1644.8,2262.5,1667.9,2253.2z"/>
			</g>
		</g>
	</g>
	<g class="st6">
		<g>
			<g>
				<path class="st4" d="M1667.9,2253.2c-2.9,94.6-23.3,207.6-89.2,216.4c-117.4,15.8-161.4-138.6-175.5-211.2
					c50,15.2,81.3,20.3,153.5,16.6C1599.2,2272.8,1644.8,2262.5,1667.9,2253.2z"/>
			</g>
		</g>
	</g>
	<g>
		<g>
			<g>
				<path class="st4" d="M1407.2,2107.3c2.2,16.7,5.1,34,8.2,51c3,17,6.5,34,10.2,50.9c7.3,33.8,16.4,67,27.3,99.3
					c11,32.1,24.5,63.3,42.1,90.1c8.8,13.3,18.9,25.2,30.2,34.1c11.3,8.9,23.5,14.3,36.3,15.5c3.2,0.3,6.5,0.4,9.8,0.2
					c1.6-0.2,3.4-0.2,4.9-0.4c1.4-0.3,2.8-0.4,4-0.8c5.3-1.3,10.1-3.8,14.9-7.7c9.4-7.7,17.5-20.5,23.5-34.9
					c6.1-14.4,10.5-30.3,14-46.6c3.5-16.3,6-33.1,7.9-50c3.6-33.9,4.7-68.5,4.2-103.1c-0.4-34.6,0.6-69.1,5.7-105l0-0.1
					c0.3-1.9,2-3.2,3.8-2.9c1.1,0.2,2,0.8,2.5,1.7c9.3,16.6,14.2,34.2,18.1,51.8c3.8,17.6,6,35.5,6.8,53.4
					c1.6,35.8,1.5,71.7-1.3,107.9c-1.4,18.1-3.6,36.3-7,54.5c-3.4,18.2-8.2,36.5-15.4,54.7c-3.7,9.1-8.1,18.1-13.7,26.9
					c-5.7,8.8-12.4,17.4-21.3,24.9c-8.8,7.5-19.7,13.6-31.5,16.7c-2.9,0.9-5.9,1.4-8.9,1.9c-2.9,0.4-5.5,0.6-8.2,0.9
					c-5.5,0.4-11,0.4-16.6-0.1c-22.5-1.7-43.6-11.6-59.8-24.5c-16.4-13-29.2-28.4-39.8-44.3c-10.7-16-19.4-32.6-26.9-49.6
					c-7.5-16.9-13.9-34.1-19.7-51.3c-11.5-34.5-19.7-69.7-26.6-104.8c-6.6-35.4-11.6-70.4-14.5-106.7c-0.8-10.2,6.8-19.1,16.9-19.9
					c9.8-0.8,18.5,6.3,19.8,16L1407.2,2107.3z"/>
			</g>
		</g>
	</g>
	<g>
		<g>
			<g>
				<ellipse class="st19" cx="1286.3" cy="2271.5" rx="49.7" ry="90.4"/>
			</g>
		</g>
	</g>
	<g>
		<g>
			<g>
				<ellipse class="st19" cx="1223.5" cy="2141.1" rx="18.4" ry="33.5"/>
			</g>
		</g>
	</g>
	<g>
		<g>
			<g>
				<ellipse class="st19" cx="1277.9" cy="2103" rx="25.5" ry="46.4"/>
			</g>
		</g>
	</g>
	<g>
		<g>
			<g>
				<ellipse class="st19" cx="1330.6" cy="2152.9" rx="16.9" ry="30.8"/>
			</g>
		</g>
	</g>
</g>
<path class="st13" d="M2098.9,1134.5"/>
<rect x="2951.8" y="914.2" class="st20" width="600" height="500"/>
<rect x="3062.5" y="1006.2" class="st21" width="378.8" height="316"/>
<rect x="3137.3" y="1068.8" class="st20" width="229" height="190.8"/>
<rect x="3176.8" y="1114.2" class="st22" width="150" height="100"/>
<path class="st13" d="M3042.4,1837.6c-4.4-4.2-8.7-8.4-13.1-12.6c0,12.2-0.1,24.5-0.1,36.7c-32.7-94.4-39.7-175.7-40.3-229.2
	c-0.6-52.6-0.9-127.9,32.5-217.5c11.6-31.3,34.7-91.4,88.5-151.3c0,0,57.6-64.1,132.7-100.6c0,0,1.4-0.7,1.4-0.7
	c0.9-0.5,1.9-0.5,1.9-0.5c4.9,0,8.9,9.2,11.4,16.9c-20.2,9.1-46.7,23.1-74.8,44.2c-10.4,7.8-48.2,37.1-83.5,85.6
	c-51.6,70.9-67.9,141.5-76.6,180.9C2989.7,1637.3,3021,1769.5,3042.4,1837.6z"/>
<path class="st13" d="M3676.8,1158"/>
</svg>
