<svg xmlns="http://www.w3.org/2000/svg" viewBox="0 0 249.05 248.47">
  <title>call</title>
  <g id="Слой_2" data-name="Слой 2">
    <path d="M127,184.19v9.47a5.86,5.86,0,0,0,.42,1.89,8,8,0,0,0,3.53,3.78h0v26.56l0,.59-.06,1.2a23,23,0,0,1-.83,4.73,23.59,23.59,0,0,1-21,17.1c-1.71.12-2.93.07-4.28.08H24.53c-.71,0-1.58-.07-2.36-.11s-1.59-.21-2.38-.33A23.65,23.65,0,0,1,.94,229.64l-.17-1.19c0-.4-.05-.8-.08-1.2l0-1.2V58.68c0-.68,0-1.29,0-2.15a17.38,17.38,0,0,1,.2-2.39,17.09,17.09,0,0,1,.45-2.37A23.68,23.68,0,0,1,21.72,33.86c.79-.08,1.6-.1,2.4-.14h83.21l1.2,0,1.2.07,1.19.17a23.67,23.67,0,0,1,19.61,18.8c.12.8.27,1.59.34,2.39s.1,1.64.11,2.37v4l0,8-.07,16a4,4,0,0,1-8,0l.06-16,0-8,0-4-.08-1.63c-.05-.53-.16-1.05-.23-1.58a15.67,15.67,0,0,0-13-12.45l-.79-.13-.8,0-.8,0H24.17c-.53,0-1.07.05-1.6.09a15.71,15.71,0,0,0-10.8,6.15,15.89,15.89,0,0,0-2.72,5.72,10.57,10.57,0,0,0-.29,1.57,10.56,10.56,0,0,0-.14,1.59c0,.48,0,1.21,0,1.87V226l0,.8c0,.26,0,.53,0,.8l.12.79A15.66,15.66,0,0,0,21.3,241.34c.53.07,1.05.18,1.58.22s1,.06,1.65.07H104.7c1.32,0,2.78,0,3.72-.06a15.62,15.62,0,0,0,14-11.33,15.08,15.08,0,0,0,.55-3.14l0-.8,0-.41V199.33h0l0-15.14a2,2,0,1,1,4,0Z" transform="translate(-0.62 -1.13)" style="fill: #e1b16a"/>
    <line x1="4.73" y1="73.22" x2="126.24" y2="72.88" style="fill: none;stroke: #e1b16a;stroke-linecap: round;stroke-linejoin: round;stroke-width: 5px"/>
    <line x1="5.08" y1="198.39" x2="124.36" y2="198.05" style="fill: none;stroke: #e1b16a;stroke-linecap: round;stroke-linejoin: round;stroke-width: 5px"/>
    <line x1="51.73" y1="55.76" x2="77.69" y2="55.77" style="fill: none;stroke: #e1b16a;stroke-linecap: round;stroke-linejoin: round;stroke-width: 4px"/>
    <circle cx="64.97" cy="217.57" r="7.7" style="fill: #e1b16a"/>
    <path d="M216.94,68.19h-9.73L189.07,84c-.07-9-.27-15.6-.52-15.7a2,2,0,0,0-.66-.13h0a30.93,30.93,0,0,1-21.35-8.88A30.12,30.12,0,0,1,157.66,38v-4.1A30.32,30.32,0,0,1,187.89,3.63h29.05a30.31,30.31,0,0,1,30.23,30.23V38A30.31,30.31,0,0,1,216.94,68.19Z" transform="translate(-0.62 -1.13)" style="fill: none;stroke: #e1b16a;stroke-linecap: round;stroke-linejoin: round;stroke-width: 5px"/>
    <path d="M170,89.62H131.42l-1.22.07-2.43.12c-.8.09-1.6.24-2.4.35l-1.2.18c-.4.06-.79.2-1.18.29l-2.35.61c-.77.24-1.52.55-2.28.82l-1.14.42c-.38.15-.74.35-1.1.52l-2.19,1-2.08,1.27-1,.63-1,.73c-.64.5-1.3,1-1.93,1.47l-1.8,1.64a16.42,16.42,0,0,0-1.7,1.74c-.53.61-1.13,1.17-1.61,1.82a37.92,37.92,0,0,0-2.78,4l-.63,1-.32.52-.26.55-1.06,2.19a35.5,35.5,0,0,0-2.67,9.3,34,34,0,0,0-.42,4.83c0,.39,0,.82,0,1.28v4c0,.92,0,1.67,0,2.5s.1,1.62.2,2.42a38.44,38.44,0,0,0,.86,4.77,36.74,36.74,0,0,0,17.07,22.69,38.16,38.16,0,0,0,18.55,5.13,6,6,0,0,1,.84.06c.24,0,.49.09.75.16l.4.13.1,0,.11.05a3.5,3.5,0,0,1,1,.6,3.8,3.8,0,0,1,.76.91l.11.22,0,0,0,.08c0,.11.09.22.13.33a5.2,5.2,0,0,1,.23,1c.09.67.12,1.13.15,1.63.07,1,.11,1.9.14,2.83l.16,5.52c.08,3.66.12,7.32.15,11l-5.8-2.61,24.14-21.07a3.47,3.47,0,0,1,2.3-.86h11.3c.74,0,1.56,0,2.21,0l2.06-.11,1-.05c.34,0,.68-.1,1-.15a36.81,36.81,0,0,0,31.88-33l.11-2.06c0-.69.09-1.35.07-2.13v-4.52a38.73,38.73,0,0,0-.91-8.2,37.1,37.1,0,0,0-7.08-14.76A38,38,0,0,0,186,93.29,36.55,36.55,0,0,0,170,89.62Zm0-7a44.78,44.78,0,0,1,4.91.3c.81.1,1.62.21,2.43.35s1.6.36,2.39.58a30.75,30.75,0,0,1,4.59,1.69c.84,2.47,2.12,3.15,3.75,3.4.42,0,.87,0,1.33,0a4.63,4.63,0,0,1,1.47-.2A15.57,15.57,0,0,1,193,89.89a42.15,42.15,0,0,1,3.95,2.81,44.69,44.69,0,0,1,6.86,6.82,43.46,43.46,0,0,1,8.39,17.35,45.45,45.45,0,0,1,1.1,9.64l0,4.52c0,.73,0,1.56-.07,2.37l-.12,2.43a43.5,43.5,0,0,1-37.58,39.08c-.4.06-.8.13-1.2.17l-1.23.07-2.44.13c-1.6.07-3,0-4.57.05l-9,0,2.18-.82-24.07,21.15a3.42,3.42,0,0,1-5.68-2.53v0c0-3.63-.09-7.26-.18-10.87l-.17-5.4c0-.89-.08-1.78-.14-2.63,0-.4-.07-.86-.11-1.09,0,0,0-.18.09.31a1.89,1.89,0,0,0,.11.25l.15.3a3.53,3.53,0,0,0,.73.88,3.25,3.25,0,0,0,.95.57l.07,0h0l.08,0,.08,0h.16a45.27,45.27,0,0,1-22.08-6,43.61,43.61,0,0,1-20.41-27,44.35,44.35,0,0,1-1-5.71c-.12-1-.18-1.93-.24-2.89s-.06-2,0-2.83v-4c0-.43,0-.89,0-1.39a44.64,44.64,0,0,1,3.71-16.88l1.26-2.61.32-.65.38-.62.75-1.24a45.68,45.68,0,0,1,3.31-4.74c.59-.77,1.28-1.45,1.92-2.17a21.93,21.93,0,0,1,2-2.07l2.15-1.94c.74-.61,1.53-1.17,2.3-1.75l1.16-.87,1.23-.76,2.48-1.49,2.61-1.27c.44-.2.87-.43,1.31-.61l1.36-.5c.91-.33,1.81-.69,2.73-1l2.81-.72c.47-.11.93-.26,1.4-.34l1.44-.22c1-.14,1.91-.31,2.86-.42l2.9-.15,1.44-.06h17.3Z" transform="translate(-0.62 -1.13)" style="fill: #e1b16a"/>
    <text transform="translate(164.58 38.08)" style="font-size: 22.59040069580078px;fill: #e1b16a;font-family: BloggerSans-Medium, Blogger Sans">Дзвінок</text>
    <text transform="translate(107.4 113.38)" style="font-size: 22.59040069580078px;fill: #e1b16a;font-family: BloggerSans-Medium, Blogger Sans">Viber або<tspan x="-2.55" y="21.56">заповніть</tspan><tspan x="13.61" y="43.13">форму</tspan></text>
  </g>
</svg>
